# Exported from Wings 3D 1.5.2
mtllib intersection.mtl
o grid4
#92 vertices, 34 faces
v -2.50000000 0.10000000 -2.50000000
v -2.00000000 0.10000000 -2.50000000
v -1.50000000 0.10000000 -2.50000000
v -1.00000000 0.10000000 -2.50000000
v 1.00000000 0.10000000 -2.50000000
v 1.50000000 0.10000000 -2.50000000
v 2.00000000 0.10000000 -2.50000000
v 2.50000000 0.10000000 -2.50000000
v -2.50000000 0.10000000 -2.00000000
v -1.00000000 0.10000000 -2.00000000
v 1.00000000 0.10000000 -2.00000000
v 2.50000000 0.10000000 -2.00000000
v -2.50000000 0.10000000 -1.50000000
v -1.00000000 0.10000000 -1.50000000
v 1.00000000 0.10000000 -1.50000000
v 2.50000000 0.10000000 -1.50000000
v -2.50000000 0.10000000 -1.00000000
v -2.00000000 0.10000000 -1.00000000
v -1.50000000 0.10000000 -1.00000000
v -1.00000000 0.10000000 -1.00000000
v 1.00000000 0.10000000 -1.00000000
v 1.50000000 0.10000000 -1.00000000
v 2.00000000 0.10000000 -1.00000000
v 2.50000000 0.10000000 -1.00000000
v -2.50000000 0.10000000 1.00000000
v -2.00000000 0.10000000 1.00000000
v -1.50000000 0.10000000 1.00000000
v -1.00000000 0.10000000 1.00000000
v 1.00000000 0.10000000 1.00000000
v 1.50000000 0.10000000 1.00000000
v 2.00000000 0.10000000 1.00000000
v 2.50000000 0.10000000 1.00000000
v -2.50000000 0.10000000 1.50000000
v -1.00000000 0.10000000 1.50000000
v 1.00000000 0.10000000 1.50000000
v 2.50000000 0.10000000 1.50000000
v -2.50000000 0.10000000 2.00000000
v -1.00000000 0.10000000 2.00000000
v 1.00000000 0.10000000 2.00000000
v 2.50000000 0.10000000 2.00000000
v -2.50000000 0.10000000 2.50000000
v -2.00000000 0.10000000 2.50000000
v -1.50000000 0.10000000 2.50000000
v -1.00000000 0.10000000 2.50000000
v 1.00000000 0.10000000 2.50000000
v 1.50000000 0.10000000 2.50000000
v 2.00000000 0.10000000 2.50000000
v 2.50000000 0.10000000 2.50000000
v -2.50000000 -0.10000000 -2.50000000
v 2.50000000 -0.10000000 -2.50000000
v -2.50000000 -0.10000000 2.50000000
v 2.50000000 -0.10000000 2.50000000
v -0.50000000 0.0000000e+0 -2.50000000
v -1.00000000 0.0000000e+0 -2.50000000
v -1.00000000 0.0000000e+0 -2.00000000
v -1.00000000 0.0000000e+0 -1.50000000
v -1.00000000 0.0000000e+0 -1.00000000
v -1.50000000 0.0000000e+0 -1.00000000
v -2.00000000 0.0000000e+0 -1.00000000
v -2.50000000 0.0000000e+0 -1.00000000
v -2.50000000 0.0000000e+0 -0.50000000
v -2.50000000 0.0000000e+0 0.0000000e+0
v -2.50000000 0.0000000e+0 0.50000000
v -2.50000000 0.0000000e+0 1.00000000
v -2.00000000 0.0000000e+0 1.00000000
v -1.50000000 0.0000000e+0 1.00000000
v -1.00000000 0.0000000e+0 1.00000000
v -1.00000000 0.0000000e+0 1.50000000
v -1.00000000 0.0000000e+0 2.00000000
v -1.00000000 0.0000000e+0 2.50000000
v -0.50000000 0.0000000e+0 2.50000000
v 0.0000000e+0 0.0000000e+0 2.50000000
v 0.50000000 0.0000000e+0 2.50000000
v 1.00000000 0.0000000e+0 2.50000000
v 1.00000000 0.0000000e+0 2.00000000
v 1.00000000 0.0000000e+0 1.50000000
v 1.00000000 0.0000000e+0 1.00000000
v 1.50000000 0.0000000e+0 1.00000000
v 2.00000000 0.0000000e+0 1.00000000
v 2.50000000 0.0000000e+0 1.00000000
v 2.50000000 0.0000000e+0 0.50000000
v 2.50000000 0.0000000e+0 0.0000000e+0
v 2.50000000 0.0000000e+0 -0.50000000
v 2.50000000 0.0000000e+0 -1.00000000
v 2.00000000 0.0000000e+0 -1.00000000
v 1.50000000 0.0000000e+0 -1.00000000
v 1.00000000 0.0000000e+0 -1.00000000
v 1.00000000 0.0000000e+0 -1.50000000
v 1.00000000 0.0000000e+0 -2.00000000
v 1.00000000 0.0000000e+0 -2.50000000
v 0.50000000 0.0000000e+0 -2.50000000
v 0.0000000e+0 0.0000000e+0 -2.50000000
vt 0.0000000e+0 8.3266727e-17
vt 0.0000000e+0 0.50000000
vt 0.0000000e+0 0.52000000
vt 0.0000000e+0 0.54000000
vt 0.0000000e+0 0.56000000
vt 0.0000000e+0 0.58000000
vt 0.0000000e+0 0.58000000
vt 0.0000000e+0 0.63000000
vt 0.0000000e+0 0.68000000
vt 0.0000000e+0 0.73000000
vt 8.3266727e-17 0.50000000
vt 5.0000000e-2 0.52000000
vt 5.0000000e-2 0.54000000
vt 5.0000000e-2 0.56000000
vt 5.0000000e-2 0.58000000
vt 5.0000000e-2 0.58000000
vt 5.0000000e-2 0.73000000
vt 1.0000000e-1 0.52000000
vt 1.0000000e-1 0.54000000
vt 1.0000000e-1 0.56000000
vt 1.0000000e-1 0.58000000
vt 0.10000000 0.58000000
vt 0.10000000 0.73000000
vt 0.15000000 0.51000000
vt 0.15000000 0.52000000
vt 0.15000000 0.53000000
vt 0.15000000 0.54000000
vt 0.15000000 0.55000000
vt 0.15000000 0.56000000
vt 0.15000000 0.57000000
vt 0.15000000 0.58000000
vt 0.15000000 0.58000000
vt 0.15000000 0.63000000
vt 0.15000000 0.68000000
vt 0.15000000 0.73000000
vt 0.15000000 0.58000000
vt 0.15000000 0.63000000
vt 0.15000000 0.68000000
vt 0.15000000 0.73000000
vt 0.20000000 0.51000000
vt 0.20000000 0.53000000
vt 0.20000000 0.55000000
vt 0.20000000 0.57000000
vt 0.20000000 0.58000000
vt 0.20000000 0.73000000
vt 0.25000000 0.51000000
vt 0.25000000 0.53000000
vt 0.25000000 0.55000000
vt 0.25000000 0.57000000
vt 0.25000000 0.58000000
vt 0.25000000 0.73000000
vt 0.30000000 0.51000000
vt 0.30000000 0.53000000
vt 0.30000000 0.55000000
vt 0.30000000 0.57000000
vt 0.30000000 0.58000000
vt 0.30000000 0.63000000
vt 0.30000000 0.68000000
vt 0.30000000 0.73000000
vt 0.30000000 0.58000000
vt 0.30000000 0.63000000
vt 0.30000000 0.68000000
vt 0.30000000 0.73000000
vt 0.35000000 0.51000000
vt 0.35000000 0.52000000
vt 0.35000000 0.53000000
vt 0.35000000 0.54000000
vt 0.35000000 0.55000000
vt 0.35000000 0.56000000
vt 0.35000000 0.57000000
vt 0.35000000 0.58000000
vt 0.35000000 0.58000000
vt 0.35000000 0.73000000
vt 0.40000000 0.52000000
vt 0.40000000 0.54000000
vt 0.40000000 0.56000000
vt 0.40000000 0.58000000
vt 0.40000000 0.58000000
vt 0.40000000 0.73000000
vt 0.45000000 0.52000000
vt 0.45000000 0.54000000
vt 0.45000000 0.56000000
vt 0.45000000 0.58000000
vt 0.45000000 0.58000000
vt 0.45000000 0.63000000
vt 0.45000000 0.68000000
vt 0.45000000 0.73000000
vt 0.50000000 0.0000000e+0
vt 0.50000000 0.50000000
vt 0.50000000 0.50000000
vt 0.50000000 0.51000000
vt 0.50000000 0.52000000
vt 0.50000000 0.54000000
vt 0.50000000 0.56000000
vt 0.50000000 0.58000000
vt 0.50000000 0.58000000
vt 0.50000000 0.73000000
vt 0.50000000 0.15000000
vt 0.50000000 0.20000000
vt 0.50000000 0.25000000
vt 0.50000000 0.30000000
vt 0.50000000 0.35000000
vt 0.50000000 0.50000000
vt 0.55000000 0.15000000
vt 0.55000000 0.35000000
vt 0.55000000 0.50000000
vt 0.55000000 0.51000000
vt 0.55000000 0.58000000
vt 0.55000000 0.73000000
vt 0.60000000 0.15000000
vt 0.60000000 0.35000000
vt 0.60000000 0.50000000
vt 0.60000000 0.51000000
vt 0.60000000 0.58000000
vt 0.60000000 0.63000000
vt 0.60000000 0.68000000
vt 0.60000000 0.73000000
vt 0.65000000 0.0000000e+0
vt 0.65000000 5.0000000e-2
vt 0.65000000 1.0000000e-1
vt 0.65000000 0.15000000
vt 0.65000000 0.35000000
vt 0.65000000 0.40000000
vt 0.65000000 0.45000000
vt 0.65000000 0.50000000
vt 0.65000000 0.51000000
vt 0.70000000 0.0000000e+0
vt 0.70000000 0.50000000
vt 0.70000000 0.51000000
vt 0.75000000 0.0000000e+0
vt 0.75000000 0.50000000
vt 0.75000000 0.51000000
vt 0.80000000 0.50000000
vt 0.80000000 0.51000000
vt 0.80000000 0.52000000
vt 0.80000000 0.52000000
vt 0.80000000 0.53000000
vt 0.80000000 0.54000000
vt 0.80000000 0.54000000
vt 0.80000000 0.55000000
vt 0.80000000 0.56000000
vt 0.80000000 0.0000000e+0
vt 0.80000000 0.50000000
vt 0.85000000 0.50000000
vt 0.85000000 0.51000000
vt 0.85000000 0.52000000
vt 0.85000000 0.52000000
vt 0.85000000 0.53000000
vt 0.85000000 0.54000000
vt 0.85000000 0.54000000
vt 0.85000000 0.55000000
vt 0.85000000 0.56000000
vt 0.85000000 0.0000000e+0
vt 0.85000000 5.0000000e-2
vt 0.85000000 1.0000000e-1
vt 0.85000000 0.15000000
vt 0.85000000 0.35000000
vt 0.85000000 0.40000000
vt 0.85000000 0.45000000
vt 0.85000000 0.50000000
vt 0.90000000 0.50000000
vt 0.90000000 0.51000000
vt 0.90000000 0.52000000
vt 0.90000000 0.52000000
vt 0.90000000 0.53000000
vt 0.90000000 0.54000000
vt 0.90000000 0.54000000
vt 0.90000000 0.55000000
vt 0.90000000 0.56000000
vt 0.90000000 0.15000000
vt 0.90000000 0.35000000
vt 0.95000000 0.50000000
vt 0.95000000 0.51000000
vt 0.95000000 0.52000000
vt 0.95000000 0.52000000
vt 0.95000000 0.53000000
vt 0.95000000 0.54000000
vt 0.95000000 0.54000000
vt 0.95000000 0.55000000
vt 0.95000000 0.56000000
vt 0.95000000 0.15000000
vt 0.95000000 0.35000000
vt 1.00000000 0.15000000
vt 1.00000000 0.20000000
vt 1.00000000 0.25000000
vt 1.00000000 0.30000000
vt 1.00000000 0.35000000
vn -0.57735027 0.57735027 -0.57735027
vn 0.0000000e+0 0.70710678 -0.70710678
vn 0.0000000e+0 0.70710678 -0.70710678
vn 0.57735027 0.57735027 -0.57735027
vn -0.57735027 0.57735027 -0.57735027
vn 0.0000000e+0 0.70710678 -0.70710678
vn 0.0000000e+0 0.70710678 -0.70710678
vn 0.57735027 0.57735027 -0.57735027
vn -0.70710678 0.70710678 -4.3613679e-18
vn 0.89442719 0.44721360 -2.7583713e-18
vn -0.89442719 0.44721360 -2.7583713e-18
vn 0.70710678 0.70710678 -4.3613679e-18
vn -0.70710678 0.70710678 -4.3613679e-18
vn 0.89442719 0.44721360 -2.7583713e-18
vn -0.89442719 0.44721360 -2.7583713e-18
vn 0.70710678 0.70710678 -4.3613679e-18
vn -0.57735027 0.57735027 0.57735027
vn 0.0000000e+0 0.44721360 0.89442719
vn 0.0000000e+0 0.44721360 0.89442719
vn 0.57735027 0.57735027 0.57735027
vn -0.57735027 0.57735027 0.57735027
vn 0.0000000e+0 0.44721360 0.89442719
vn 0.0000000e+0 0.44721360 0.89442719
vn 0.57735027 0.57735027 0.57735027
vn -0.57735027 0.57735027 -0.57735027
vn 0.0000000e+0 0.44721360 -0.89442719
vn 0.0000000e+0 0.44721360 -0.89442719
vn 0.57735027 0.57735027 -0.57735027
vn -0.57735027 0.57735027 -0.57735027
vn 0.0000000e+0 0.44721360 -0.89442719
vn 0.0000000e+0 0.44721360 -0.89442719
vn 0.57735027 0.57735027 -0.57735027
vn -0.70710678 0.70710678 -4.3613679e-18
vn 0.89442719 0.44721360 -2.7583713e-18
vn -0.89442719 0.44721360 -2.7583713e-18
vn 0.70710678 0.70710678 -4.3613679e-18
vn -0.70710678 0.70710678 -4.3613679e-18
vn 0.89442719 0.44721360 -2.7583713e-18
vn -0.89442719 0.44721360 -2.7583713e-18
vn 0.70710678 0.70710678 -4.3613679e-18
vn -0.57735027 0.57735027 0.57735027
vn 0.0000000e+0 0.70710678 0.70710678
vn 0.0000000e+0 0.70710678 0.70710678
vn 0.57735027 0.57735027 0.57735027
vn -0.57735027 0.57735027 0.57735027
vn 0.0000000e+0 0.70710678 0.70710678
vn 0.0000000e+0 0.70710678 0.70710678
vn 0.57735027 0.57735027 0.57735027
vn -0.57735027 -0.57735027 -0.57735027
vn 0.57735027 -0.57735027 -0.57735027
vn -0.57735027 -0.57735027 0.57735027
vn 0.57735027 -0.57735027 0.57735027
vn 0.0000000e+0 0.70710678 -0.70710678
vn 0.57735027 0.57735027 -0.57735027
vn 0.89442719 0.44721360 0.0000000e+0
vn 0.89442719 0.44721360 0.0000000e+0
vn 0.57735027 0.57735027 0.57735027
vn 0.0000000e+0 0.44721360 0.89442719
vn 0.0000000e+0 0.44721360 0.89442719
vn -0.57735027 0.57735027 0.57735027
vn -0.70710678 0.70710678 0.0000000e+0
vn -0.70710678 0.70710678 0.0000000e+0
vn -0.70710678 0.70710678 0.0000000e+0
vn -0.57735027 0.57735027 -0.57735027
vn 0.0000000e+0 0.44721360 -0.89442719
vn 0.0000000e+0 0.44721360 -0.89442719
vn 0.57735027 0.57735027 -0.57735027
vn 0.89442719 0.44721360 0.0000000e+0
vn 0.89442719 0.44721360 0.0000000e+0
vn 0.57735027 0.57735027 0.57735027
vn 0.0000000e+0 0.70710678 0.70710678
vn 0.0000000e+0 0.70710678 0.70710678
vn 0.0000000e+0 0.70710678 0.70710678
vn -0.57735027 0.57735027 0.57735027
vn -0.89442719 0.44721360 0.0000000e+0
vn -0.89442719 0.44721360 0.0000000e+0
vn -0.57735027 0.57735027 -0.57735027
vn 0.0000000e+0 0.44721360 -0.89442719
vn 0.0000000e+0 0.44721360 -0.89442719
vn 0.57735027 0.57735027 -0.57735027
vn 0.70710678 0.70710678 0.0000000e+0
vn 0.70710678 0.70710678 0.0000000e+0
vn 0.70710678 0.70710678 0.0000000e+0
vn 0.57735027 0.57735027 0.57735027
vn 0.0000000e+0 0.44721360 0.89442719
vn 0.0000000e+0 0.44721360 0.89442719
vn -0.57735027 0.57735027 0.57735027
vn -0.89442719 0.44721360 0.0000000e+0
vn -0.89442719 0.44721360 0.0000000e+0
vn -0.57735027 0.57735027 -0.57735027
vn 0.0000000e+0 0.70710678 -0.70710678
vn 0.0000000e+0 0.70710678 -0.70710678
g grid4_grid4_auv
usemtl grid4_auv
s 1
f 1/35/1 9/34/9 13/33/13 17/32/17 18/44/18 19/50/19 20/60/20 14/61/14 10/62/10 4/63/4 3/51/3 2/45/2
f 1/4/1 49/3/49 51/92/51 41/93/41 37/81/37 33/75/33 25/67/25 64/66/64 63/53/63 62/47/62 61/41/61 60/26/60 17/27/17 13/19/13 9/13/9
f 2/80/2 3/74/3 4/65/4 54/64/54 53/52/53 92/46/92 91/40/91 90/24/90 5/25/5 6/18/6 7/12/7 8/3/8 50/2/50 49/90/49 1/92/1
f 5/59/5 11/58/11 15/57/15 21/56/21 22/72/22 23/78/23 24/84/24 16/85/16 12/86/12 8/87/8 7/79/7 6/73/6
f 5/141/5 90/140/90 89/151/89 11/152/11
f 10/162/10 55/161/55 54/172/54 4/173/4
f 11/152/11 89/151/89 88/168/88 15/169/15
f 12/83/12 16/77/16 24/71/24 84/70/84 83/55/83 82/49/82 81/43/81 80/30/80 32/31/32 36/21/36 40/15/40 48/6/48 52/5/52 50/94/50 8/95/8
f 14/145/14 56/144/56 55/161/55 10/162/10
f 15/169/15 88/168/88 87/179/87 21/180/21
f 17/136/17 60/134/60 59/145/59 18/147/18
f 18/147/18 59/145/59 58/162/58 19/164/19
f 19/164/19 58/162/58 57/173/57 20/175/20
f 20/134/20 57/133/57 56/144/56 14/145/14
f 21/140/21 87/138/87 86/149/86 22/151/22
f 22/151/22 86/149/86 85/166/85 23/168/23
f 23/168/23 85/166/85 84/177/84 24/179/24
f 25/87/25 33/86/33 37/85/37 41/84/41 42/96/42 43/108/43 44/114/44 38/115/38 34/116/34 28/117/28 27/109/27 26/97/26
f 26/113/26 65/112/65 64/125/64 25/126/25
f 27/107/27 66/106/66 65/112/65 26/113/26
f 28/91/28 67/89/67 66/106/66 27/107/27
f 29/10/29 35/9/35 39/8/39 45/7/45 46/16/46 47/22/47 48/36/48 40/37/40 36/38/36 32/39/32 31/23/31 30/17/30
f 29/139/29 77/137/77 76/148/76 35/150/35
f 30/132/30 78/131/78 77/133/77 29/134/29
f 31/129/31 79/128/79 78/131/78 30/132/30
f 32/126/32 80/125/80 79/128/79 31/129/31
f 34/165/34 68/163/68 67/174/67 28/176/28
f 35/150/35 76/148/76 75/165/75 39/167/39
f 38/148/38 69/146/69 68/163/68 34/165/34
f 39/167/39 75/165/75 74/176/74 45/178/45
f 41/5/41 51/4/51 52/93/52 48/94/48 47/82/47 46/76/46 45/69/45 74/68/74 73/54/73 72/48/72 71/42/71 70/28/70 44/29/44 43/20/43 42/14/42
f 44/137/44 70/135/70 69/146/69 38/148/38
f 50/11/50 52/1/52 51/88/51 49/103/49
f 54/125/54 55/124/55 56/123/56 57/122/57 58/111/58 59/105/59 60/102/60 61/101/61 62/100/62 63/99/63 64/98/64 65/104/65 66/110/66 67/121/67 68/120/68 69/119/69 70/118/70 71/127/71 72/130/72 73/142/73 74/153/74 75/154/75 76/155/76 77/156/77 78/170/78 79/181/79 80/183/80 81/184/81 82/185/82 83/186/83 84/187/84 85/182/85 86/171/86 87/157/87 88/158/88 89/159/89 90/160/90 91/143/91 92/131/92 53/128/53
