# Exported from Wings 3D 1.5.3
mtllib lambo_doors.mtl
o Cube3_extract6
#24 vertices, 12 faces
v -0.43603561 0.29802024 1.54445713
v 0.64124298 0.29802024 1.54445713
v 0.16279857 -0.41520401 1.54445713
v -1.07854706 -0.41520401 1.54445713
v -1.75870448 0.29802024 1.54445713
v -0.81521427 0.29802024 1.54445713
v -0.43603561 0.32558998 1.59445713
v 0.64124298 0.32558998 1.59445713
v 0.16279857 -0.41520401 1.59445713
v -1.07854706 -0.41520401 1.59445713
v -1.75870448 0.32558998 1.59445713
v -0.81521427 0.32558998 1.59445713
v -0.43603561 0.29802024 -1.54445713
v 0.64124298 0.29802024 -1.54445713
v 0.16279857 -0.41520401 -1.54445713
v -1.07854706 -0.41520401 -1.54445713
v -1.75870448 0.29802024 -1.54445713
v -0.81521427 0.29802024 -1.54445713
v -0.43603561 0.32558998 -1.59445713
v 0.64124298 0.32558998 -1.59445713
v 0.16279857 -0.41520401 -1.59445713
v -1.07854706 -0.41520401 -1.59445713
v -1.75870448 0.32558998 -1.59445713
v -0.81521427 0.32558998 -1.59445713
vt 0.0000000e+0 0.23726432
vt 0.0000000e+0 0.47452864
vt 0.0000000e+0 0.70296282
vt 0.0000000e+0 0.93139700
vt 0.0000000e+0 0.93139700
vt 0.0000000e+0 0.94968431
vt 0.0000000e+0 0.94968431
vt 0.0000000e+0 0.96797162
vt 0.0000000e+0 0.98398581
vt 0.0000000e+0 0.98398581
vt 0.0000000e+0 1.00000000
vt 0.15323800 2.7755576e-17
vt 0.15323800 0.47452864
vt 0.21784341 0.23726432
vt 0.21784341 0.70296282
vt 0.30218464 0.47452864
vt 0.30218464 0.93139700
vt 0.30218464 0.93139700
vt 0.30218464 0.94968431
vt 0.30218464 0.94968431
vt 0.30218464 0.96797162
vt 0.34503489 0.23726432
vt 0.34503489 0.70296282
vt 0.39758291 0.96797162
vt 0.39758291 0.98398581
vt 0.39758291 1.00000000
vt 0.42362943 0.47452864
vt 0.42362943 0.93139700
vt 0.42362943 0.93139700
vt 0.42362943 0.94968431
vt 0.42362943 0.94968431
vt 0.42362943 0.96797162
vt 0.46647968 0.23726432
vt 0.46647968 0.70296282
vt 0.55082091 0.0000000e+0
vt 0.55082091 0.47452864
vt 0.61542632 0.23726432
vt 0.61542632 0.70296282
vt 0.76866432 0.59714881
vt 0.76866432 0.88696142
vt 0.76866432 0.31564035
vt 0.76866432 0.23726432
vt 0.76866432 0.47452864
vt 0.76866432 0.70296282
vt 0.76866432 0.93139700
vt 0.76866432 0.93139700
vt 0.76866432 0.94968431
vt 0.76866432 0.94968431
vt 0.76866432 0.96797162
vt 0.76902802 0.60452497
vt 0.76902802 0.32208851
vt 0.76922263 -5.5511151e-17
vt 0.78486139 0.60452497
vt 0.78486139 0.32208851
vt 0.78496010 -5.5511151e-17
vt 0.78522509 0.60452497
vt 0.78522509 0.87958527
vt 0.78551841 0.32208851
vt 0.78551841 0.32208851
vt 0.78607672 2.7755576e-17
vt 0.80181419 0.0000000e+0
vt 0.80237250 0.31564035
vn 0.0000000e+0 0.50849965 -0.86106220
vn 0.51524989 0.20722806 -0.83160933
vn 0.42438761 -0.79313390 -0.43684525
vn -0.36005029 -0.83857066 -0.40885576
vn -0.47938695 0.13648922 -0.86692494
vn 0.0000000e+0 0.50849965 -0.86106220
vn 0.0000000e+0 0.86106220 0.50849965
vn 0.74248304 0.29861883 0.59962132
vn 0.39432939 -0.73695839 0.54899606
vn -0.33056129 -0.76988967 0.54589297
vn -0.70037276 0.19940745 0.68535733
vn 0.0000000e+0 0.86106220 0.50849965
vn 0.0000000e+0 0.50849965 0.86106220
vn 0.51524989 0.20722806 0.83160933
vn 0.42438761 -0.79313390 0.43684525
vn -0.36005029 -0.83857066 0.40885576
vn -0.47938695 0.13648922 0.86692494
vn 0.0000000e+0 0.50849965 0.86106220
vn 0.0000000e+0 0.86106220 -0.50849965
vn 0.74248304 0.29861883 -0.59962132
vn 0.39432939 -0.73695839 -0.54899606
vn -0.33056129 -0.76988967 -0.54589297
vn -0.70037276 0.19940745 -0.68535733
vn 0.0000000e+0 0.86106220 -0.50849965
g Cube3_extract6_default
usemtl default
s 1
f 1/30/1 6/19/6 5/6/5 11/5/11 12/18/12 7/29/7 8/46/8 2/47/2
f 2/3/2 3/13/3 4/36/4 5/44/5 6/34/6 1/23/1
f 2/57/2 8/40/8 9/50/9 3/53/3
f 3/9/3 9/8/9 10/24/10 4/25/4
f 4/52/4 10/55/10 11/59/11 5/41/5
f 7/27/7 12/16/12 11/2/11 10/14/10 9/37/9 8/43/8
f 13/28/13 18/17/18 17/4/17 16/15/16 15/38/15 14/45/14
f 14/48/14 20/49/20 19/32/19 24/21/24 23/8/23 17/7/17 18/20/18 13/31/13
f 15/51/15 21/54/21 20/56/20 14/39/14
f 16/25/16 22/26/22 21/11/21 15/10/15
f 17/62/17 23/58/23 22/60/22 16/61/16
f 20/1/20 21/12/21 22/35/22 23/42/23 24/33/24 19/22/19
