# 3ds Max Wavefront OBJ Exporter v0.97b - (c)2007 guruware
# File Created: 13.03.2015 15:24:53

mtllib bakery.mtl

#
# object Plane001
#

v  -137.2336 0.0000 138.7644
v  -68.2285 0.0000 138.7644
v  -68.2285 0.0000 69.7593
v  -137.2336 0.0000 69.7593
v  0.7767 0.0000 138.7644
v  0.7767 0.0000 69.7593
v  69.7818 0.0000 138.7644
v  69.7818 0.0000 69.7593
v  199.5644 440.7057 93.3468
v  335.3729 440.7057 93.3468
v  335.3729 440.7057 47.0505
v  199.5644 440.7057 47.0505
v  -68.2285 0.0000 0.7542
v  -137.2336 0.0000 0.7542
v  0.7767 0.0000 0.7542
v  69.7818 0.0000 0.7542
v  335.3729 440.7057 0.7542
v  199.5644 440.7057 0.7542
v  -68.2285 0.0000 -68.2510
v  -137.2336 0.0000 -68.2510
v  0.7767 0.0000 -68.2510
v  69.7818 0.0000 -68.2510
v  335.3729 440.7057 -45.5422
v  199.5644 440.7057 -45.5422
v  -68.2285 0.0000 -137.2561
v  -137.2336 0.0000 -137.2561
v  0.7767 0.0000 -137.2561
v  69.7818 0.0000 -137.2561
v  335.3729 440.7057 -91.8385
v  199.5644 440.7057 -91.8385
v  138.7870 0.0000 138.7644
v  465.1552 155.1636 138.7645
v  69.7818 155.1636 138.7645
v  501.9021 -0.0000 138.7645
v  501.9021 -0.0000 69.7593
v  501.9022 155.1636 69.7593
v  501.9022 155.1636 138.7645
v  501.9021 -0.0000 0.7542
v  501.9022 155.1636 0.7542
v  501.9021 -0.0000 -68.2510
v  501.9022 155.1636 -68.2510
v  501.9021 -0.0000 -137.2561
v  501.9022 155.1636 -137.2562
v  138.7870 0.0000 -137.2561
v  69.7818 155.1636 -137.2561
v  465.1552 155.1636 -137.2562
v  63.5836 155.1636 138.7645
v  63.5836 209.7931 138.7645
v  63.5836 209.7931 69.7593
v  63.5836 155.1636 69.7593
v  465.1552 310.3501 138.7645
v  69.7819 310.3501 138.7645
v  69.7819 209.7931 138.7645
v  465.1552 155.1636 69.7593
v  465.1552 310.3501 69.7593
v  465.1552 155.1636 0.7542
v  465.1552 310.3501 0.7542
v  465.1552 155.1636 -68.2510
v  465.1552 310.3501 -68.2510
v  465.1552 310.3501 -137.2562
v  69.7819 209.7931 -137.2562
v  69.7819 310.3501 -137.2562
v  63.5836 155.1636 -68.2510
v  63.5836 209.7931 -68.2510
v  63.5836 209.7931 -137.2562
v  63.5836 155.1636 -137.2561
v  63.5836 155.1636 0.7542
v  63.5836 209.7931 0.7542
v  138.7870 0.0000 69.7593
v  138.7870 0.0000 0.7542
v  138.7870 0.0000 -68.2510
v  69.7819 155.1597 138.7645
v  138.7870 155.1597 138.7645
v  138.7870 155.1597 69.7593
v  69.7819 155.1597 69.7593
v  138.7870 155.1597 0.7542
v  69.7819 155.1597 0.7542
v  138.7870 155.1597 -68.2510
v  69.7819 155.1597 -68.2510
v  138.7870 155.1597 -137.2562
v  69.7819 155.1597 -137.2562
v  69.7819 310.3501 -68.2510
v  86.9600 327.6041 -52.4021
v  151.3179 392.0222 -52.0071
v  69.7819 310.3501 0.7542
v  86.8754 327.5190 0.7542
v  69.7819 310.3501 69.7593
v  151.4024 392.1072 0.7542
v  86.7436 391.7460 -52.0071
v  86.7433 391.8296 0.7542
v  95.0438 329.3094 -2.8030
v  94.9214 390.0504 -2.8030
v  94.9159 389.9780 -48.4478
v  95.1227 329.3830 -48.8209
v  86.8734 329.3038 -2.8096
v  86.9523 329.3774 -48.8274
v  86.7510 390.0449 -2.8096
v  86.7455 389.9725 -48.4543
v  69.7819 209.7931 69.7593
v  69.7819 209.7931 -68.2510
v  74.2897 304.2956 -11.3737
v  74.2897 304.2956 -56.1231
v  74.2897 215.8475 -56.1231
v  74.2897 215.8475 -11.3737
v  74.2897 304.2956 57.6315
v  74.2897 304.2956 12.8820
v  74.2897 215.8475 12.8820
v  74.2897 215.8475 57.6315
v  69.7819 209.7931 0.7542
v  69.7819 304.2956 -11.3737
v  69.7819 215.8475 -11.3737
v  69.7819 304.2956 -56.1231
v  69.7819 215.8475 -56.1231
v  69.7819 304.2956 57.6315
v  69.7819 215.8475 57.6315
v  69.7819 304.2956 12.8820
v  69.7819 215.8475 12.8820
v  69.7818 155.1636 69.7593
v  69.7818 155.1636 -68.2510
v  69.7818 155.1636 0.7542
# 120 vertices

vn 0.0000 1.0000 -0.0000
vn 0.0000 -0.0000 1.0000
vn -0.0000 -0.0000 1.0000
vn 1.0000 -0.0000 -0.0000
vn 0.0000 -0.0000 -1.0000
vn -0.0000 -0.0000 -1.0000
vn -1.0000 0.0000 -0.0000
vn -0.0000 -1.0000 -0.0000
vn 0.0000 -1.0000 -0.0000
vn -0.0000 0.1714 0.9852
vn 0.8955 0.4451 -0.0000
vn -0.0000 0.1714 -0.9852
vn -0.8950 0.4461 -0.0005
vn -0.8959 0.4443 0.0027
vn -0.8955 0.4451 0.0000
vn -0.8955 0.4451 -0.0000
vn -0.8955 0.4451 -0.0043
vn -0.8963 0.4434 0.0000
vn -0.0000 0.0031 -1.0000
vn -0.0086 1.0000 -0.0032
vn -1.0000 -0.0014 -0.0008
vn -1.0000 -0.0014 -0.0017
vn -1.0000 -0.0010 -0.0008
vn -1.0000 -0.0014 0.0001
vn -1.0000 -0.0017 -0.0008
vn -0.0014 1.0000 0.0032
vn 0.0008 0.0000 -1.0000
vn 0.0014 -1.0000 0.0032
vn -0.0008 -0.0031 1.0000
vn 0.0000 0.0000 -1.0000
vn 0.0000 0.0000 1.0000
# 31 vertex normals

vt 0.0000 0.0000 0.0000
vt 0.2500 0.0000 0.0000
vt 0.2500 0.2500 0.0000
vt 0.0000 0.2500 0.0000
vt 0.5000 0.0000 0.0000
vt 0.5000 0.2500 0.0000
vt 0.7500 0.0000 0.0000
vt 0.7500 0.2500 0.0000
vt 1.0000 0.0000 0.0000
vt 1.0000 0.2500 0.0000
vt 0.2500 0.5000 0.0000
vt 0.0000 0.5000 0.0000
vt 0.5000 0.5000 0.0000
vt 0.7500 0.5000 0.0000
vt 1.0000 0.5000 0.0000
vt 0.2500 0.7500 0.0000
vt 0.0000 0.7500 0.0000
vt 0.5000 0.7500 0.0000
vt 0.7500 0.7500 0.0000
vt 1.0000 0.7500 0.0000
vt 0.2500 1.0000 0.0000
vt 0.0000 1.0000 0.0000
vt 0.5000 1.0000 0.0000
vt 0.7500 1.0000 0.0000
vt 1.0000 1.0000 0.0000
# 25 texture coords

g Plane001
usemtl wire_108008136
s 1
f 1/1/1 2/2/1 3/3/1 
f 3/3/1 4/4/1 1/1/1 
f 2/2/1 5/5/1 6/6/1 
f 6/6/1 3/3/1 2/2/1 
f 5/5/1 7/7/1 8/8/1 
f 8/8/1 6/6/1 5/5/1 
f 9/7/1 10/9/1 11/10/1 
f 11/10/1 12/8/1 9/7/1 
f 4/4/1 3/3/1 13/11/1 
f 13/11/1 14/12/1 4/4/1 
f 3/3/1 6/6/1 15/13/1 
f 15/13/1 13/11/1 3/3/1 
f 6/6/1 8/8/1 16/14/1 
f 16/14/1 15/13/1 6/6/1 
f 12/8/1 11/10/1 17/15/1 
f 17/15/1 18/14/1 12/8/1 
f 14/12/1 13/11/1 19/16/1 
f 19/16/1 20/17/1 14/12/1 
f 13/11/1 15/13/1 21/18/1 
f 21/18/1 19/16/1 13/11/1 
f 15/13/1 16/14/1 22/19/1 
f 22/19/1 21/18/1 15/13/1 
f 18/14/1 17/15/1 23/20/1 
f 23/20/1 24/19/1 18/14/1 
f 20/17/1 19/16/1 25/21/1 
f 25/21/1 26/22/1 20/17/1 
f 19/16/1 21/18/1 27/23/1 
f 27/23/1 25/21/1 19/16/1 
f 21/18/1 22/19/1 28/24/1 
f 28/24/1 27/23/1 21/18/1 
f 24/19/1 23/20/1 29/25/1 
f 29/25/1 30/24/1 24/19/1 
s off
f 7/7/2 31/9/2 32/9/2 
f 32/9/3 33/7/3 7/7/3 
f 34/9/4 35/10/4 36/10/4 
f 36/10/4 37/9/4 34/9/4 
f 35/10/4 38/15/4 39/15/4 
f 39/15/4 36/10/4 35/10/4 
f 38/15/4 40/20/4 41/20/4 
f 41/20/4 39/15/4 38/15/4 
f 40/20/4 42/25/4 43/25/4 
f 43/25/4 41/20/4 40/20/4 
f 44/25/5 28/24/5 45/24/5 
f 45/24/6 46/25/6 44/25/6 
f 47/7/7 48/7/7 49/8/7 50/8/7 
f 33/7/3 32/9/3 51/9/3 
f 51/9/3 52/7/3 53/7/3 33/7/3 
f 32/9/4 54/10/4 55/10/4 
f 55/10/4 51/9/4 32/9/4 
f 54/10/4 56/15/4 57/15/4 
f 57/15/4 55/10/4 54/10/4 
f 56/15/4 58/20/4 59/20/4 
f 59/20/4 57/15/4 56/15/4 
f 58/20/4 46/25/4 60/25/4 
f 60/25/4 59/20/4 58/20/4 
f 46/25/6 45/24/6 61/24/6 62/24/6 
f 62/24/6 60/25/6 46/25/6 
f 63/19/7 64/19/7 65/24/7 66/24/7 
f 67/14/7 68/14/7 64/19/7 63/19/7 
f 50/8/7 49/8/7 68/14/7 67/14/7 
f 31/9/8 69/10/8 35/10/8 
f 35/10/8 34/9/8 31/9/8 
f 69/10/8 70/15/8 38/15/8 
f 38/15/8 35/10/8 69/10/8 
f 70/15/8 71/20/8 40/20/8 
f 40/20/8 38/15/8 70/15/8 
f 71/20/8 44/25/8 42/25/8 
f 42/25/8 40/20/8 71/20/8 
f 44/25/5 46/25/5 43/25/5 
f 43/25/6 42/25/6 44/25/6 
f 46/25/1 58/20/1 41/20/1 
f 41/20/1 43/25/1 46/25/1 
f 58/20/1 56/15/1 39/15/1 
f 39/15/1 41/20/1 58/20/1 
f 56/15/1 54/10/1 36/10/1 
f 36/10/1 39/15/1 56/15/1 
f 54/10/1 32/9/1 37/9/1 
f 37/9/1 36/10/1 54/10/1 
f 32/9/3 31/9/3 34/9/3 
f 34/9/2 37/9/2 32/9/2 
f 20/17/9 26/22/9 25/21/9 
f 14/12/9 20/17/9 25/21/9 
f 4/4/9 14/12/9 25/21/9 7/7/9 
f 28/24/9 44/25/9 71/20/9 27/23/9 
f 25/21/9 27/23/9 71/20/9 7/7/9 
f 69/10/9 31/9/9 7/7/9 70/15/9 
f 71/20/9 70/15/9 7/7/9 
f 4/4/9 7/7/9 5/5/9 2/2/9 
f 1/1/9 4/4/9 2/2/9 
s 1
f 72/7/1 73/9/1 74/10/1 
f 74/10/1 75/8/1 72/7/1 
f 75/8/1 74/10/1 76/15/1 
f 76/15/1 77/14/1 75/8/1 
f 77/14/1 76/15/1 78/20/1 
f 78/20/1 79/19/1 77/14/1 
f 79/19/1 78/20/1 80/25/1 
f 80/25/1 81/24/1 79/19/1 
s off
f 52/7/10 51/9/10 10/9/10 9/7/10 
f 51/9/11 55/10/11 11/10/11 10/9/11 
f 55/10/11 57/15/11 17/15/11 11/10/11 
f 57/15/11 59/20/11 23/20/11 17/15/11 
f 59/20/11 60/25/11 29/25/11 23/20/11 
f 60/25/12 62/24/12 30/24/12 29/25/12 
f 82/19/13 83/19/13 84/19/13 62/24/13 
f 62/24/14 84/19/14 24/19/14 30/24/14 
f 85/14/15 86/14/15 83/19/15 82/19/15 
f 85/14/16 87/8/16 12/8/16 86/14/16 
f 18/14/17 88/14/17 86/14/17 12/8/17 
f 87/8/16 52/7/16 9/7/16 12/8/16 
f 88/14/18 18/14/18 24/19/18 84/19/18 
f 83/19/19 89/19/19 84/19/19 
f 86/14/2 88/14/2 90/14/2 
f 88/14/20 84/19/20 89/19/20 90/14/20 
f 91/14/21 92/14/21 93/19/21 94/19/21 
f 83/19/22 86/14/22 95/14/22 96/19/22 
f 86/14/23 90/14/23 97/14/23 95/14/23 
f 90/14/24 89/19/24 98/19/24 97/14/24 
f 89/19/25 83/19/25 96/19/25 98/19/25 
f 96/19/26 95/14/26 91/14/26 94/19/26 
f 95/14/27 97/14/27 92/14/27 91/14/27 
f 97/14/28 98/19/28 93/19/28 92/14/28 
f 98/19/29 96/19/29 94/19/29 93/19/29 
f 52/7/7 87/8/7 99/8/7 53/7/7 
f 82/19/7 62/24/7 61/24/7 100/19/7 
f 101/14/7 102/19/7 103/19/7 104/14/7 
f 105/8/7 106/14/7 107/14/7 108/8/7 
f 109/14/7 85/14/7 110/14/7 111/14/7 
f 85/14/7 82/19/7 112/19/7 110/14/7 
f 82/19/7 100/19/7 113/19/7 112/19/7 
f 100/19/7 109/14/7 111/14/7 113/19/7 
f 99/8/7 87/8/7 114/8/7 115/8/7 
f 87/8/7 85/14/7 116/14/7 114/8/7 
f 85/14/7 109/14/7 117/14/7 116/14/7 
f 109/14/7 99/8/7 115/8/7 117/14/7 
f 111/14/30 110/14/30 101/14/30 104/14/30 
f 110/14/9 112/19/9 102/19/9 101/14/9 
f 112/19/31 113/19/31 103/19/31 102/19/31 
f 113/19/1 111/14/1 104/14/1 103/19/1 
f 115/8/30 114/8/30 105/8/30 108/8/30 
f 114/8/9 116/14/9 106/14/9 105/8/9 
f 116/14/31 117/14/31 107/14/31 106/14/31 
f 117/14/1 115/8/1 108/8/1 107/14/1 
f 118/8/9 33/7/9 47/7/9 50/8/9 
f 33/7/2 53/7/2 48/7/2 47/7/2 
f 53/7/1 99/8/1 49/8/1 48/7/1 
f 99/8/1 109/14/1 68/14/1 49/8/1 
f 109/14/1 100/19/1 64/19/1 68/14/1 
f 100/19/1 61/24/1 65/24/1 64/19/1 
f 61/24/5 45/24/5 66/24/5 65/24/5 
f 45/24/9 119/19/9 63/19/9 66/24/9 
f 119/19/9 120/14/9 67/14/9 63/19/9 
f 120/14/9 118/8/9 50/8/9 67/14/9 
# 64 polygons - 88 triangles

