# 3ds Max Wavefront OBJ Exporter v0.97b - (c)2007 guruware
# File Created: 14.03.2015 14:03:32

mtllib bagutte.mtl

#
# object baguette
#

v  32.3016 11.0766 5.1336
v  34.3574 9.4199 9.5597
v  58.6952 9.4199 5.4784
v  34.3574 6.9219 13.0258
v  60.8417 7.1813 9.9196
v  32.3016 3.7322 15.3245
v  58.6953 3.9806 13.0258
v  79.3644 6.9219 5.4784
v  79.3644 3.9806 9.5597
v  93.0723 3.7322 5.1336
v  1.4202 12.1779 -0.0450
v  1.4202 11.7425 4.4442
v  28.1901 11.7425 -0.0450
v  1.4202 0.0000 16.8527
v  28.1901 0.0000 16.2485
v  1.4202 3.2353 16.2485
v  102.1854 0.0000 -0.0450
v  98.5824 3.2353 -0.0450
v  98.5824 0.0000 4.4442
v  1.4202 10.5139 8.4798
v  52.2560 0.0000 14.5438
v  88.4168 6.1437 -0.0450
v  1.4202 8.6088 11.9003
v  72.6531 0.0000 11.9003
v  72.6531 8.6088 -0.0450
v  1.4202 6.1437 14.5438
v  88.4168 0.0000 8.4798
v  52.2560 10.5139 -0.0450
v  32.3016 11.0766 -5.2236
v  58.6952 9.4199 -5.5684
v  34.3574 9.4199 -9.6497
v  79.3644 6.9219 -5.5684
v  60.8417 7.1813 -10.0096
v  93.0723 3.7322 -5.2236
v  79.3644 3.9806 -9.6497
v  34.3574 6.9219 -13.1158
v  58.6952 3.9806 -13.1158
v  32.3016 3.7322 -15.4145
v  1.4202 11.7425 -4.5341
v  98.5824 0.0000 -4.5341
v  1.4202 0.0000 -16.9427
v  1.4202 3.2353 -16.3385
v  28.1901 0.0000 -16.3385
v  88.4168 0.0000 -8.5698
v  1.4202 6.1437 -14.6338
v  72.6531 0.0000 -11.9903
v  1.4202 8.6088 -11.9903
v  52.2560 0.0000 -14.6338
v  1.4202 10.5139 -8.5698
v  -29.4612 11.0766 -5.2236
v  -31.5170 9.4199 -9.6497
v  -55.8549 9.4199 -5.5684
v  -31.5170 6.9219 -13.1158
v  -58.0013 7.1813 -10.0096
v  -29.4612 3.7322 -15.4145
v  -55.8549 3.9806 -13.1158
v  -76.5240 6.9219 -5.5684
v  -76.5240 3.9806 -9.6497
v  -90.2319 3.7322 -5.2236
v  -25.3497 11.7425 -0.0450
v  -25.3497 0.0000 -16.3385
v  -99.3450 0.0000 -0.0450
v  -95.7420 3.2353 -0.0450
v  -95.7420 0.0000 -4.5341
v  -49.4156 0.0000 -14.6338
v  -85.5764 6.1437 -0.0450
v  -69.8127 0.0000 -11.9903
v  -69.8127 8.6088 -0.0450
v  -85.5764 0.0000 -8.5698
v  -49.4156 10.5139 -0.0450
v  -29.4612 11.0766 5.1336
v  -55.8549 9.4199 5.4784
v  -31.5170 9.4199 9.5597
v  -76.5240 6.9219 5.4784
v  -58.0013 7.1813 9.9196
v  -90.2319 3.7322 5.1336
v  -76.5240 3.9806 9.5597
v  -31.5170 6.9219 13.0258
v  -55.8548 3.9806 13.0258
v  -29.4612 3.7322 15.3245
v  -95.7420 0.0000 4.4442
v  -25.3497 0.0000 16.2485
v  -85.5764 0.0000 8.4798
v  -69.8127 0.0000 11.9003
v  -49.4156 0.0000 14.5438
v  32.3016 -11.0766 5.1336
v  58.6952 -9.4199 5.4784
v  34.3574 -9.4199 9.5597
v  79.3644 -6.9219 5.4784
v  60.8417 -7.1813 9.9196
v  93.0723 -3.7322 5.1336
v  79.3644 -3.9806 9.5597
v  34.3574 -6.9219 13.0258
v  58.6952 -3.9806 13.0258
v  32.3016 -3.7322 15.3245
v  1.4202 -12.1779 -0.0450
v  28.1901 -11.7425 -0.0450
v  1.4202 -11.7425 4.4442
v  98.5824 -3.2353 -0.0450
v  1.4202 -3.2353 16.2485
v  52.2560 -10.5139 -0.0450
v  1.4202 -6.1437 14.5438
v  72.6531 -8.6088 -0.0450
v  1.4202 -8.6088 11.9003
v  88.4168 -6.1437 -0.0450
v  1.4202 -10.5139 8.4798
v  32.3016 -11.0766 -5.2236
v  34.3574 -9.4199 -9.6497
v  58.6952 -9.4199 -5.5684
v  34.3574 -6.9219 -13.1158
v  60.8417 -7.1813 -10.0096
v  32.3016 -3.7322 -15.4145
v  58.6953 -3.9806 -13.1158
v  79.3644 -6.9219 -5.5684
v  79.3644 -3.9806 -9.6497
v  93.0723 -3.7322 -5.2236
v  1.4202 -11.7425 -4.5341
v  1.4202 -3.2353 -16.3385
v  1.4202 -10.5139 -8.5698
v  1.4202 -8.6088 -11.9903
v  1.4202 -6.1437 -14.6338
v  -29.4612 -11.0766 -5.2236
v  -55.8549 -9.4199 -5.5684
v  -31.5170 -9.4199 -9.6497
v  -76.5240 -6.9219 -5.5684
v  -58.0013 -7.1813 -10.0096
v  -90.2319 -3.7322 -5.2236
v  -76.5240 -3.9806 -9.6497
v  -31.5170 -6.9219 -13.1158
v  -55.8548 -3.9806 -13.1158
v  -29.4612 -3.7322 -15.4145
v  -25.3497 -11.7425 -0.0450
v  -95.7420 -3.2353 -0.0450
v  -49.4156 -10.5139 -0.0450
v  -69.8127 -8.6088 -0.0450
v  -85.5764 -6.1437 -0.0450
v  -29.4612 -11.0766 5.1336
v  -31.5170 -9.4199 9.5597
v  -55.8549 -9.4199 5.4784
v  -31.5170 -6.9219 13.0258
v  -58.0013 -7.1813 9.9196
v  -29.4612 -3.7322 15.3245
v  -55.8549 -3.9806 13.0258
v  -76.5240 -6.9219 5.4784
v  -76.5240 -3.9806 9.5597
v  -90.2319 -3.7322 5.1336
# 146 vertices

vn 0.2824 0.9168 0.2824
vn 0.2879 0.7783 0.5580
vn 0.5580 0.7783 0.2879
vn 0.2879 0.5580 0.7783
vn 0.5774 0.5774 0.5774
vn 0.2824 0.2824 0.9168
vn 0.5580 0.2879 0.7783
vn 0.7783 0.5580 0.2879
vn 0.7783 0.2879 0.5580
vn 0.9168 0.2824 0.2824
vn -0.0000 1.0000 -0.0000
vn 0.0000 0.9666 0.2561
vn 0.2561 0.9666 -0.0000
vn -0.0000 0.0000 1.0000
vn 0.2561 -0.0000 0.9666
vn -0.0000 0.2561 0.9666
vn 1.0000 -0.0000 0.0000
vn 0.9666 0.2561 0.0000
vn 0.9666 0.0000 0.2561
vn 0.0000 0.8662 0.4997
vn 0.4997 -0.0000 0.8662
vn 0.8662 0.4997 0.0000
vn 0.0000 0.7071 0.7071
vn 0.7071 -0.0000 0.7071
vn 0.7071 0.7071 -0.0000
vn -0.0000 0.4997 0.8662
vn 0.8662 0.0000 0.4997
vn 0.4997 0.8662 -0.0000
vn 0.2824 0.9168 -0.2824
vn 0.5580 0.7783 -0.2879
vn 0.2879 0.7783 -0.5580
vn 0.7783 0.5580 -0.2879
vn 0.5774 0.5774 -0.5774
vn 0.9168 0.2824 -0.2824
vn 0.7783 0.2879 -0.5580
vn 0.2879 0.5580 -0.7783
vn 0.5580 0.2879 -0.7783
vn 0.2824 0.2824 -0.9168
vn -0.0000 0.9666 -0.2561
vn 0.9666 -0.0000 -0.2561
vn 0.0000 -0.0000 -1.0000
vn 0.0000 0.2561 -0.9666
vn 0.2561 -0.0000 -0.9666
vn 0.8662 -0.0000 -0.4997
vn 0.0000 0.4997 -0.8662
vn 0.7071 -0.0000 -0.7071
vn -0.0000 0.7071 -0.7071
vn 0.4997 0.0000 -0.8662
vn -0.0000 0.8662 -0.4997
vn -0.2824 0.9168 -0.2824
vn -0.2879 0.7783 -0.5580
vn -0.5580 0.7783 -0.2879
vn -0.2879 0.5580 -0.7783
vn -0.5774 0.5774 -0.5774
vn -0.2824 0.2824 -0.9168
vn -0.5580 0.2879 -0.7783
vn -0.7783 0.5580 -0.2879
vn -0.7783 0.2879 -0.5580
vn -0.9168 0.2824 -0.2824
vn -0.2561 0.9666 -0.0000
vn -0.2561 -0.0000 -0.9666
vn -1.0000 -0.0000 -0.0000
vn -0.9666 0.2561 -0.0000
vn -0.9666 0.0000 -0.2561
vn -0.4997 -0.0000 -0.8662
vn -0.8662 0.4997 -0.0000
vn -0.7071 -0.0000 -0.7071
vn -0.7071 0.7071 0.0000
vn -0.8662 0.0000 -0.4997
vn -0.4997 0.8662 0.0000
vn -0.2824 0.9168 0.2824
vn -0.5580 0.7783 0.2879
vn -0.2879 0.7783 0.5580
vn -0.7783 0.5580 0.2879
vn -0.5774 0.5774 0.5774
vn -0.9168 0.2824 0.2824
vn -0.7783 0.2879 0.5580
vn -0.2879 0.5580 0.7783
vn -0.5580 0.2879 0.7783
vn -0.2824 0.2824 0.9168
vn -0.9666 -0.0000 0.2561
vn -0.2561 0.0000 0.9666
vn -0.8662 -0.0000 0.4997
vn -0.7071 -0.0000 0.7071
vn -0.4997 0.0000 0.8662
vn 0.2824 -0.9168 0.2824
vn 0.5580 -0.7783 0.2879
vn 0.2879 -0.7783 0.5580
vn 0.7783 -0.5580 0.2879
vn 0.5774 -0.5774 0.5774
vn 0.9168 -0.2824 0.2824
vn 0.7783 -0.2879 0.5580
vn 0.2879 -0.5580 0.7783
vn 0.5580 -0.2879 0.7783
vn 0.2824 -0.2824 0.9168
vn 0.0000 -1.0000 0.0000
vn 0.2561 -0.9666 0.0000
vn -0.0000 -0.9666 0.2561
vn 0.9666 -0.2561 -0.0000
vn 0.0000 -0.2561 0.9666
vn 0.4997 -0.8662 0.0000
vn 0.0000 -0.4997 0.8662
vn 0.7071 -0.7071 0.0000
vn -0.0000 -0.7071 0.7071
vn 0.8662 -0.4997 -0.0000
vn -0.0000 -0.8662 0.4997
vn 0.2824 -0.9168 -0.2824
vn 0.2879 -0.7783 -0.5580
vn 0.5580 -0.7783 -0.2879
vn 0.2879 -0.5580 -0.7783
vn 0.5774 -0.5774 -0.5774
vn 0.2824 -0.2824 -0.9168
vn 0.5580 -0.2879 -0.7783
vn 0.7783 -0.5580 -0.2879
vn 0.7783 -0.2879 -0.5580
vn 0.9168 -0.2824 -0.2824
vn 0.0000 -0.9666 -0.2561
vn -0.0000 -0.2561 -0.9666
vn 0.0000 -0.8662 -0.4997
vn 0.0000 -0.7071 -0.7071
vn -0.0000 -0.4997 -0.8662
vn -0.2824 -0.9168 -0.2824
vn -0.5580 -0.7783 -0.2879
vn -0.2879 -0.7783 -0.5580
vn -0.7783 -0.5580 -0.2879
vn -0.5774 -0.5774 -0.5774
vn -0.9168 -0.2824 -0.2824
vn -0.7783 -0.2879 -0.5580
vn -0.2879 -0.5580 -0.7783
vn -0.5580 -0.2879 -0.7783
vn -0.2824 -0.2824 -0.9168
vn -0.2561 -0.9666 -0.0000
vn -0.9666 -0.2561 0.0000
vn -0.4997 -0.8662 -0.0000
vn -0.7071 -0.7071 -0.0000
vn -0.8662 -0.4997 0.0000
vn -0.2824 -0.9168 0.2824
vn -0.2879 -0.7783 0.5580
vn -0.5580 -0.7783 0.2879
vn -0.2879 -0.5580 0.7783
vn -0.5774 -0.5774 0.5774
vn -0.2824 -0.2824 0.9168
vn -0.5580 -0.2879 0.7783
vn -0.7783 -0.5580 0.2879
vn -0.7783 -0.2879 0.5580
vn -0.9168 -0.2824 0.2824
# 146 vertex normals

vt 98.2928 46.8061 0.0000
vt 95.9524 42.1255 0.0000
vt 100.6331 42.1255 0.0000
vt 93.6121 37.4449 0.0000
vt 98.2928 37.4449 0.0000
vt 91.2719 32.7643 0.0000
vt 95.9525 32.7643 0.0000
vt 102.9734 37.4449 0.0000
vt 100.6331 32.7643 0.0000
vt 105.3137 32.7643 0.0000
vt 98.2928 56.1673 0.0000
vt 95.9525 51.4867 0.0000
vt 100.6331 51.4867 0.0000
vt 84.2509 28.0836 0.0000
vt 88.9315 28.0836 0.0000
vt 86.5912 32.7643 0.0000
vt 112.3346 28.0836 0.0000
vt 109.9943 32.7643 0.0000
vt 107.6540 28.0836 0.0000
vt 93.6121 46.8061 0.0000
vt 93.6122 28.0836 0.0000
vt 107.6540 37.4449 0.0000
vt 91.2718 42.1255 0.0000
vt 98.2928 28.0836 0.0000
vt 105.3137 42.1255 0.0000
vt 88.9315 37.4449 0.0000
vt 102.9734 28.0836 0.0000
vt 102.9734 46.8061 0.0000
vt 14.0418 46.8061 0.0000
vt 11.7015 42.1255 0.0000
vt 16.3821 42.1255 0.0000
vt 9.3612 37.4449 0.0000
vt 14.0418 37.4449 0.0000
vt 7.0209 32.7643 0.0000
vt 11.7015 32.7643 0.0000
vt 18.7224 37.4449 0.0000
vt 16.3821 32.7643 0.0000
vt 21.0627 32.7643 0.0000
vt 14.0418 56.1673 0.0000
vt 11.7015 51.4867 0.0000
vt 16.3821 51.4867 0.0000
vt 0.0000 28.0836 0.0000
vt 4.6806 28.0836 0.0000
vt 2.3403 32.7643 0.0000
vt 28.0836 28.0836 0.0000
vt 25.7433 32.7643 0.0000
vt 23.4030 28.0836 0.0000
vt 9.3612 46.8061 0.0000
vt 9.3612 28.0836 0.0000
vt 23.4030 37.4449 0.0000
vt 7.0209 42.1255 0.0000
vt 14.0418 28.0836 0.0000
vt 21.0627 42.1255 0.0000
vt 4.6806 37.4449 0.0000
vt 18.7224 28.0836 0.0000
vt 18.7224 46.8061 0.0000
vt 42.1255 46.8061 0.0000
vt 39.7852 42.1255 0.0000
vt 44.4658 42.1255 0.0000
vt 37.4449 37.4449 0.0000
vt 42.1255 37.4449 0.0000
vt 35.1046 32.7643 0.0000
vt 39.7852 32.7643 0.0000
vt 46.8061 37.4449 0.0000
vt 44.4658 32.7643 0.0000
vt 49.1464 32.7643 0.0000
vt 42.1255 56.1673 0.0000
vt 39.7852 51.4867 0.0000
vt 44.4658 51.4867 0.0000
vt 32.7643 28.0836 0.0000
vt 30.4239 32.7643 0.0000
vt 56.1673 28.0836 0.0000
vt 53.8270 32.7643 0.0000
vt 51.4867 28.0836 0.0000
vt 37.4449 46.8061 0.0000
vt 37.4449 28.0836 0.0000
vt 51.4867 37.4449 0.0000
vt 35.1046 42.1255 0.0000
vt 42.1255 28.0836 0.0000
vt 49.1464 42.1255 0.0000
vt 32.7643 37.4449 0.0000
vt 46.8061 28.0836 0.0000
vt 46.8061 46.8061 0.0000
vt 70.2091 46.8061 0.0000
vt 67.8688 42.1255 0.0000
vt 72.5494 42.1255 0.0000
vt 65.5285 37.4449 0.0000
vt 70.2091 37.4449 0.0000
vt 63.1882 32.7643 0.0000
vt 67.8688 32.7643 0.0000
vt 74.8897 37.4449 0.0000
vt 72.5494 32.7643 0.0000
vt 77.2300 32.7643 0.0000
vt 70.2091 56.1673 0.0000
vt 67.8688 51.4867 0.0000
vt 72.5494 51.4867 0.0000
vt 60.8479 28.0836 0.0000
vt 58.5076 32.7643 0.0000
vt 81.9106 32.7643 0.0000
vt 79.5703 28.0836 0.0000
vt 65.5285 46.8061 0.0000
vt 65.5285 28.0836 0.0000
vt 79.5703 37.4449 0.0000
vt 63.1882 42.1255 0.0000
vt 70.2091 28.0836 0.0000
vt 77.2300 42.1255 0.0000
vt 60.8479 37.4449 0.0000
vt 74.8897 28.0836 0.0000
vt 74.8897 46.8061 0.0000
vt 98.2928 9.3612 0.0000
vt 100.6331 14.0418 0.0000
vt 95.9525 14.0418 0.0000
vt 102.9734 18.7224 0.0000
vt 98.2928 18.7224 0.0000
vt 105.3137 23.4030 0.0000
vt 100.6331 23.4030 0.0000
vt 93.6121 18.7224 0.0000
vt 95.9525 23.4030 0.0000
vt 91.2718 23.4030 0.0000
vt 98.2928 0.0000 0.0000
vt 100.6331 4.6806 0.0000
vt 95.9525 4.6806 0.0000
vt 109.9943 23.4030 0.0000
vt 86.5912 23.4030 0.0000
vt 102.9734 9.3612 0.0000
vt 88.9315 18.7224 0.0000
vt 105.3137 14.0418 0.0000
vt 91.2718 14.0418 0.0000
vt 107.6540 18.7224 0.0000
vt 93.6121 28.0836 0.0000
vt 93.6121 9.3612 0.0000
vt 14.0418 9.3612 0.0000
vt 16.3821 14.0418 0.0000
vt 11.7015 14.0418 0.0000
vt 18.7224 18.7224 0.0000
vt 14.0418 18.7224 0.0000
vt 21.0627 23.4030 0.0000
vt 16.3821 23.4030 0.0000
vt 9.3612 18.7224 0.0000
vt 11.7015 23.4030 0.0000
vt 7.0209 23.4030 0.0000
vt 14.0418 0.0000 0.0000
vt 16.3821 4.6806 0.0000
vt 11.7015 4.6806 0.0000
vt 25.7433 23.4030 0.0000
vt 2.3403 23.4030 0.0000
vt 18.7224 9.3612 0.0000
vt 4.6806 18.7224 0.0000
vt 21.0627 14.0418 0.0000
vt 7.0209 14.0418 0.0000
vt 23.4030 18.7224 0.0000
vt 9.3612 9.3612 0.0000
vt 42.1255 9.3612 0.0000
vt 44.4658 14.0418 0.0000
vt 39.7852 14.0418 0.0000
vt 46.8061 18.7224 0.0000
vt 42.1255 18.7224 0.0000
vt 49.1464 23.4030 0.0000
vt 44.4658 23.4030 0.0000
vt 37.4449 18.7224 0.0000
vt 39.7852 23.4030 0.0000
vt 35.1046 23.4030 0.0000
vt 42.1255 0.0000 0.0000
vt 44.4658 4.6806 0.0000
vt 39.7852 4.6806 0.0000
vt 53.8270 23.4030 0.0000
vt 30.4239 23.4030 0.0000
vt 46.8061 9.3612 0.0000
vt 32.7643 18.7224 0.0000
vt 49.1464 14.0418 0.0000
vt 35.1046 14.0418 0.0000
vt 51.4867 18.7224 0.0000
vt 37.4449 9.3612 0.0000
vt 70.2091 9.3612 0.0000
vt 72.5494 14.0418 0.0000
vt 67.8688 14.0418 0.0000
vt 74.8897 18.7224 0.0000
vt 70.2091 18.7224 0.0000
vt 77.2300 23.4030 0.0000
vt 72.5494 23.4030 0.0000
vt 65.5285 18.7224 0.0000
vt 67.8688 23.4030 0.0000
vt 63.1882 23.4030 0.0000
vt 70.2091 0.0000 0.0000
vt 72.5494 4.6806 0.0000
vt 67.8688 4.6806 0.0000
vt 81.9106 23.4030 0.0000
vt 58.5076 23.4030 0.0000
vt 74.8897 9.3612 0.0000
vt 60.8479 18.7224 0.0000
vt 77.2300 14.0418 0.0000
vt 63.1882 14.0418 0.0000
vt 79.5703 18.7224 0.0000
vt 65.5285 9.3612 0.0000
# 194 texture coords

g baguette
usemtl wire_008110135
s 1
f 1/1/1 2/2/2 3/3/3 
f 2/2/2 4/4/4 5/5/5 
f 4/4/4 6/6/6 7/7/7 
f 2/2/2 5/5/5 3/3/3 
f 4/4/4 7/7/7 5/5/5 
f 3/3/3 5/5/5 8/8/8 
f 5/5/5 7/7/7 9/9/9 
f 5/5/5 9/9/9 8/8/8 
f 8/8/8 9/9/9 10/10/10 
f 11/11/11 12/12/12 13/13/13 
f 14/14/14 15/15/15 16/16/16 
f 17/17/17 18/18/18 19/19/19 
f 12/12/12 1/1/1 13/13/13 
f 15/15/15 6/6/6 16/16/16 
f 18/18/18 10/10/10 19/19/19 
f 12/12/12 20/20/20 1/1/1 
f 15/15/15 21/21/21 6/6/6 
f 18/18/18 22/22/22 10/10/10 
f 20/20/20 23/23/23 2/2/2 
f 21/21/21 24/24/24 7/7/7 
f 22/22/22 25/25/25 8/8/8 
f 23/23/23 26/26/26 4/4/4 
f 24/24/24 27/27/27 9/9/9 
f 25/25/25 28/28/28 3/3/3 
f 26/26/26 16/16/16 6/6/6 
f 27/27/27 19/19/19 10/10/10 
f 28/28/28 13/13/13 1/1/1 
f 20/20/20 2/2/2 1/1/1 
f 21/21/21 7/7/7 6/6/6 
f 22/22/22 8/8/8 10/10/10 
f 23/23/23 4/4/4 2/2/2 
f 24/24/24 9/9/9 7/7/7 
f 25/25/25 3/3/3 8/8/8 
f 26/26/26 6/6/6 4/4/4 
f 27/27/27 10/10/10 9/9/9 
f 28/28/28 1/1/1 3/3/3 
f 29/29/29 30/30/30 31/31/31 
f 30/30/30 32/32/32 33/33/33 
f 32/32/32 34/34/34 35/35/35 
f 30/30/30 33/33/33 31/31/31 
f 32/32/32 35/35/35 33/33/33 
f 31/31/31 33/33/33 36/36/36 
f 33/33/33 35/35/35 37/37/37 
f 33/33/33 37/37/37 36/36/36 
f 36/36/36 37/37/37 38/38/38 
f 11/39/11 13/40/13 39/41/39 
f 17/42/17 40/43/40 18/44/18 
f 41/45/41 42/46/42 43/47/43 
f 13/40/13 29/29/29 39/41/39 
f 40/43/40 34/34/34 18/44/18 
f 42/46/42 38/38/38 43/47/43 
f 13/40/13 28/48/28 29/29/29 
f 40/43/40 44/49/44 34/34/34 
f 42/46/42 45/50/45 38/38/38 
f 28/48/28 25/51/25 30/30/30 
f 44/49/44 46/52/46 35/35/35 
f 45/50/45 47/53/47 36/36/36 
f 25/51/25 22/54/22 32/32/32 
f 46/52/46 48/55/48 37/37/37 
f 47/53/47 49/56/49 31/31/31 
f 22/54/22 18/44/18 34/34/34 
f 48/55/48 43/47/43 38/38/38 
f 49/56/49 39/41/39 29/29/29 
f 28/48/28 30/30/30 29/29/29 
f 44/49/44 35/35/35 34/34/34 
f 45/50/45 36/36/36 38/38/38 
f 25/51/25 32/32/32 30/30/30 
f 46/52/46 37/37/37 35/35/35 
f 47/53/47 31/31/31 36/36/36 
f 22/54/22 34/34/34 32/32/32 
f 48/55/48 38/38/38 37/37/37 
f 49/56/49 29/29/29 31/31/31 
f 50/57/50 51/58/51 52/59/52 
f 51/58/51 53/60/53 54/61/54 
f 53/60/53 55/62/55 56/63/56 
f 51/58/51 54/61/54 52/59/52 
f 53/60/53 56/63/56 54/61/54 
f 52/59/52 54/61/54 57/64/57 
f 54/61/54 56/63/56 58/65/58 
f 54/61/54 58/65/58 57/64/57 
f 57/64/57 58/65/58 59/66/59 
f 11/67/11 39/68/39 60/69/60 
f 41/45/41 61/70/61 42/71/42 
f 62/72/62 63/73/63 64/74/64 
f 39/68/39 50/57/50 60/69/60 
f 61/70/61 55/62/55 42/71/42 
f 63/73/63 59/66/59 64/74/64 
f 39/68/39 49/75/49 50/57/50 
f 61/70/61 65/76/65 55/62/55 
f 63/73/63 66/77/66 59/66/59 
f 49/75/49 47/78/47 51/58/51 
f 65/76/65 67/79/67 56/63/56 
f 66/77/66 68/80/68 57/64/57 
f 47/78/47 45/81/45 53/60/53 
f 67/79/67 69/82/69 58/65/58 
f 68/80/68 70/83/70 52/59/52 
f 45/81/45 42/71/42 55/62/55 
f 69/82/69 64/74/64 59/66/59 
f 70/83/70 60/69/60 50/57/50 
f 49/75/49 51/58/51 50/57/50 
f 65/76/65 56/63/56 55/62/55 
f 66/77/66 57/64/57 59/66/59 
f 47/78/47 53/60/53 51/58/51 
f 67/79/67 58/65/58 56/63/56 
f 68/80/68 52/59/52 57/64/57 
f 45/81/45 55/62/55 53/60/53 
f 69/82/69 59/66/59 58/65/58 
f 70/83/70 50/57/50 52/59/52 
f 71/84/71 72/85/72 73/86/73 
f 72/85/72 74/87/74 75/88/75 
f 74/87/74 76/89/76 77/90/77 
f 72/85/72 75/88/75 73/86/73 
f 74/87/74 77/90/77 75/88/75 
f 73/86/73 75/88/75 78/91/78 
f 75/88/75 77/90/77 79/92/79 
f 75/88/75 79/92/79 78/91/78 
f 78/91/78 79/92/79 80/93/80 
f 11/94/11 60/95/60 12/96/12 
f 62/72/62 81/97/81 63/98/63 
f 14/14/14 16/99/16 82/100/82 
f 60/95/60 71/84/71 12/96/12 
f 81/97/81 76/89/76 63/98/63 
f 16/99/16 80/93/80 82/100/82 
f 60/95/60 70/101/70 71/84/71 
f 81/97/81 83/102/83 76/89/76 
f 16/99/16 26/103/26 80/93/80 
f 70/101/70 68/104/68 72/85/72 
f 83/102/83 84/105/84 77/90/77 
f 26/103/26 23/106/23 78/91/78 
f 68/104/68 66/107/66 74/87/74 
f 84/105/84 85/108/85 79/92/79 
f 23/106/23 20/109/20 73/86/73 
f 66/107/66 63/98/63 76/89/76 
f 85/108/85 82/100/82 80/93/80 
f 20/109/20 12/96/12 71/84/71 
f 70/101/70 72/85/72 71/84/71 
f 83/102/83 77/90/77 76/89/76 
f 26/103/26 78/91/78 80/93/80 
f 68/104/68 74/87/74 72/85/72 
f 84/105/84 79/92/79 77/90/77 
f 23/106/23 73/86/73 78/91/78 
f 66/107/66 76/89/76 74/87/74 
f 85/108/85 80/93/80 79/92/79 
f 20/109/20 71/84/71 73/86/73 
f 86/110/86 87/111/87 88/112/88 
f 87/111/87 89/113/89 90/114/90 
f 89/113/89 91/115/91 92/116/92 
f 87/111/87 90/114/90 88/112/88 
f 89/113/89 92/116/92 90/114/90 
f 88/112/88 90/114/90 93/117/93 
f 90/114/90 92/116/92 94/118/94 
f 90/114/90 94/118/94 93/117/93 
f 93/117/93 94/118/94 95/119/95 
f 96/120/96 97/121/97 98/122/98 
f 17/17/17 19/19/19 99/123/99 
f 14/14/14 100/124/100 15/15/15 
f 97/121/97 86/110/86 98/122/98 
f 19/19/19 91/115/91 99/123/99 
f 100/124/100 95/119/95 15/15/15 
f 97/121/97 101/125/101 86/110/86 
f 19/19/19 27/27/27 91/115/91 
f 100/124/100 102/126/102 95/119/95 
f 101/125/101 103/127/103 87/111/87 
f 27/27/27 24/24/24 92/116/92 
f 102/126/102 104/128/104 93/117/93 
f 103/127/103 105/129/105 89/113/89 
f 24/24/24 21/130/21 94/118/94 
f 104/128/104 106/131/106 88/112/88 
f 105/129/105 99/123/99 91/115/91 
f 21/130/21 15/15/15 95/119/95 
f 106/131/106 98/122/98 86/110/86 
f 101/125/101 87/111/87 86/110/86 
f 27/27/27 92/116/92 91/115/91 
f 102/126/102 93/117/93 95/119/95 
f 103/127/103 89/113/89 87/111/87 
f 24/24/24 94/118/94 92/116/92 
f 104/128/104 88/112/88 93/117/93 
f 105/129/105 91/115/91 89/113/89 
f 21/130/21 95/119/95 94/118/94 
f 106/131/106 86/110/86 88/112/88 
f 107/132/107 108/133/108 109/134/109 
f 108/133/108 110/135/110 111/136/111 
f 110/135/110 112/137/112 113/138/113 
f 108/133/108 111/136/111 109/134/109 
f 110/135/110 113/138/113 111/136/111 
f 109/134/109 111/136/111 114/139/114 
f 111/136/111 113/138/113 115/140/115 
f 111/136/111 115/140/115 114/139/114 
f 114/139/114 115/140/115 116/141/116 
f 96/142/96 117/143/117 97/144/97 
f 41/45/41 43/47/43 118/145/118 
f 17/42/17 99/146/99 40/43/40 
f 117/143/117 107/132/107 97/144/97 
f 43/47/43 112/137/112 118/145/118 
f 99/146/99 116/141/116 40/43/40 
f 117/143/117 119/147/119 107/132/107 
f 43/47/43 48/55/48 112/137/112 
f 99/146/99 105/148/105 116/141/116 
f 119/147/119 120/149/120 108/133/108 
f 48/55/48 46/52/46 113/138/113 
f 105/148/105 103/150/103 114/139/114 
f 120/149/120 121/151/121 110/135/110 
f 46/52/46 44/49/44 115/140/115 
f 103/150/103 101/152/101 109/134/109 
f 121/151/121 118/145/118 112/137/112 
f 44/49/44 40/43/40 116/141/116 
f 101/152/101 97/144/97 107/132/107 
f 119/147/119 108/133/108 107/132/107 
f 48/55/48 113/138/113 112/137/112 
f 105/148/105 114/139/114 116/141/116 
f 120/149/120 110/135/110 108/133/108 
f 46/52/46 115/140/115 113/138/113 
f 103/150/103 109/134/109 114/139/114 
f 121/151/121 112/137/112 110/135/110 
f 44/49/44 116/141/116 115/140/115 
f 101/152/101 107/132/107 109/134/109 
f 122/153/122 123/154/123 124/155/124 
f 123/154/123 125/156/125 126/157/126 
f 125/156/125 127/158/127 128/159/128 
f 123/154/123 126/157/126 124/155/124 
f 125/156/125 128/159/128 126/157/126 
f 124/155/124 126/157/126 129/160/129 
f 126/157/126 128/159/128 130/161/130 
f 126/157/126 130/161/130 129/160/129 
f 129/160/129 130/161/130 131/162/131 
f 96/163/96 132/164/132 117/165/117 
f 62/72/62 64/74/64 133/166/133 
f 41/45/41 118/167/118 61/70/61 
f 132/164/132 122/153/122 117/165/117 
f 64/74/64 127/158/127 133/166/133 
f 118/167/118 131/162/131 61/70/61 
f 132/164/132 134/168/134 122/153/122 
f 64/74/64 69/82/69 127/158/127 
f 118/167/118 121/169/121 131/162/131 
f 134/168/134 135/170/135 123/154/123 
f 69/82/69 67/79/67 128/159/128 
f 121/169/121 120/171/120 129/160/129 
f 135/170/135 136/172/136 125/156/125 
f 67/79/67 65/76/65 130/161/130 
f 120/171/120 119/173/119 124/155/124 
f 136/172/136 133/166/133 127/158/127 
f 65/76/65 61/70/61 131/162/131 
f 119/173/119 117/165/117 122/153/122 
f 134/168/134 123/154/123 122/153/122 
f 69/82/69 128/159/128 127/158/127 
f 121/169/121 129/160/129 131/162/131 
f 135/170/135 125/156/125 123/154/123 
f 67/79/67 130/161/130 128/159/128 
f 120/171/120 124/155/124 129/160/129 
f 136/172/136 127/158/127 125/156/125 
f 65/76/65 131/162/131 130/161/130 
f 119/173/119 122/153/122 124/155/124 
f 137/174/137 138/175/138 139/176/139 
f 138/175/138 140/177/140 141/178/141 
f 140/177/140 142/179/142 143/180/143 
f 138/175/138 141/178/141 139/176/139 
f 140/177/140 143/180/143 141/178/141 
f 139/176/139 141/178/141 144/181/144 
f 141/178/141 143/180/143 145/182/145 
f 141/178/141 145/182/145 144/181/144 
f 144/181/144 145/182/145 146/183/146 
f 96/184/96 98/185/98 132/186/132 
f 14/14/14 82/100/82 100/187/100 
f 62/72/62 133/188/133 81/97/81 
f 98/185/98 137/174/137 132/186/132 
f 82/100/82 142/179/142 100/187/100 
f 133/188/133 146/183/146 81/97/81 
f 98/185/98 106/189/106 137/174/137 
f 82/100/82 85/108/85 142/179/142 
f 133/188/133 136/190/136 146/183/146 
f 106/189/106 104/191/104 138/175/138 
f 85/108/85 84/105/84 143/180/143 
f 136/190/136 135/192/135 144/181/144 
f 104/191/104 102/193/102 140/177/140 
f 84/105/84 83/102/83 145/182/145 
f 135/192/135 134/194/134 139/176/139 
f 102/193/102 100/187/100 142/179/142 
f 83/102/83 81/97/81 146/183/146 
f 134/194/134 132/186/132 137/174/137 
f 106/189/106 138/175/138 137/174/137 
f 85/108/85 143/180/143 142/179/142 
f 136/190/136 144/181/144 146/183/146 
f 104/191/104 140/177/140 138/175/138 
f 84/105/84 145/182/145 143/180/143 
f 135/192/135 139/176/139 144/181/144 
f 102/193/102 142/179/142 140/177/140 
f 83/102/83 146/183/146 145/182/145 
f 134/194/134 137/174/137 139/176/139 
# 0 polygons - 288 triangles

