# Exported from Wings 3D 1.5.2
mtllib building_10.mtl
o Cube3_copy4
#70 vertices, 63 faces
v 349.32725489 -0.91984000 -136.91984000
v 349.32725489 -0.91984000 136.91984000
v 349.32725489 272.91984000 -136.91984000
v 349.32725489 272.91984000 136.91984000
v 623.16693489 -0.91984000 -136.91984000
v 623.16693489 -0.91984000 136.91984000
v 623.16693489 272.91984000 -136.91984000
v 623.16693489 272.91984000 136.91984000
v 376.43738321 355.15644421 -109.80971168
v 376.43738321 355.15644421 109.80971168
v 596.05680657 355.15644421 109.80971168
v 596.05680657 355.15644421 -109.80971168
v 623.16693489 166.92861075 136.91984000
v 623.16693489 166.92861075 -136.91984000
v 349.32725489 166.92861075 136.91984000
v 349.32725489 166.92861075 -136.91984000
v 440.60714822 272.91984000 136.91984000
v 531.88704156 272.91984000 136.91984000
v 440.60714822 166.92861075 136.91984000
v 531.88704156 166.92861075 136.91984000
v 435.22163452 172.31412446 136.91984000
v 435.22163452 214.60932194 165.49302756
v 354.71276860 214.60932194 165.49302756
v 354.71276860 172.31412446 136.91984000
v 537.27255526 214.60932194 165.49302756
v 537.27255526 172.31412446 136.91984000
v 617.78142118 172.31412446 136.91984000
v 617.78142118 214.60932194 165.49302756
v 537.27255526 243.18250951 126.90644280
v 537.27255526 172.31412446 126.90644280
v 617.78142118 172.31412446 126.90644280
v 617.78142118 243.18250951 126.90644280
v 435.22163452 172.31412446 126.90644280
v 435.22163452 243.18250951 126.90644280
v 354.71276860 243.18250951 126.90644280
v 354.71276860 172.31412446 126.90644280
v 453.67407705 -0.91984000 136.91984000
v 531.88704156 -0.91984000 136.91984000
v 435.22163452 243.18250951 136.71984000
v 435.22163452 242.98250951 136.91984000
v 435.25727531 243.37930822 136.91984000
v 354.71276860 243.18250951 136.71984000
v 354.71276860 242.98250951 136.91984000
v 354.67712780 243.37930822 136.91984000
v 537.27255526 243.18250951 136.71984000
v 537.27255526 242.98250951 136.91984000
v 537.23691446 243.37930822 136.91984000
v 617.78142118 243.18250951 136.71984000
v 617.78142118 242.98250951 136.91984000
v 617.81706198 243.37930822 136.91984000
v 453.67407705 153.37221689 136.91984000
v 349.32725489 153.37221689 136.91984000
v 440.60714822 153.37221689 125.78875248
v 349.32725489 153.37221689 125.78875248
v 349.32725489 -0.91984000 125.78875248
v 440.60714822 -0.91984000 125.78875248
v 623.16693489 153.37221738 136.91984000
v 531.88704156 153.37221738 136.91984000
v 453.67407705 41.18521976 136.91984000
v 623.16693489 41.18522000 136.91984000
v 456.00756660 43.51870932 136.91984000
v 620.83344534 43.51870955 136.91984000
v 620.83344534 151.03872782 136.91984000
v 531.88704156 151.03872782 136.91984000
v 456.00756660 151.03872735 136.91984000
v 456.00756660 43.51870932 131.48772477
v 620.83344534 43.51870955 131.48772477
v 620.83344534 151.03872782 131.48772477
v 531.88704156 151.03872782 131.48772477
v 456.00756660 151.03872735 131.48772477
vt -2.7755576e-17 0.43403919
vt -2.7755576e-17 0.63755030
vt -2.7755576e-17 0.76606142
vt 0.0000000e+0 0.0000000e+0
vt 0.0000000e+0 0.20351111
vt 0.0000000e+0 0.33202223
vt 0.0000000e+0 0.86807839
vt 0.0000000e+0 0.95421562
vt 1.1927728e-2 0.95421562
vt 1.2170819e-2 0.86807839
vt 1.2170819e-2 0.95397253
vt 3.2951102e-2 0.43403919
vt 3.2951102e-2 0.86807839
vt 4.6900201e-2 0.91948623
vt 4.6900201e-2 0.91948623
vt 8.1629584e-2 0.95397253
vt 8.1629584e-2 0.86807839
vt 8.1872674e-2 0.95421562
vt 9.3800403e-2 0.86807839
vt 9.3800403e-2 0.95421562
vt 0.29988831 0.43403919
vt 0.29988831 0.86807839
vt 0.33283941 0.0000000e+0
vt 0.33283941 0.18707439
vt 0.33283941 0.33202223
vt 0.33283941 0.0000000e+0
vt 0.33283941 5.1051096e-2
vt 0.33283941 0.18707440
vt 0.33283941 0.20351111
vt 0.33283941 0.33202223
vt 0.33283941 0.43403919
vt 0.33283941 0.63755030
vt 0.33283941 0.43403919
vt 0.33283941 0.70097640
vt 0.33283941 0.76606142
vt 0.33283941 0.70097640
vt 0.33283941 0.70757889
vt 0.33283941 0.83826447
vt 0.33283941 0.83826447
vt 0.33283941 0.84486696
vt 0.33283941 0.70757889
vt 0.36579051 0.43403919
vt 0.42506739 0.83826447
vt 0.44094963 0.70097640
vt 0.44094963 0.70757889
vt 0.53317761 0.70757889
vt 0.53317761 0.83826447
vt 0.53317761 0.83826447
vt 0.53317761 0.84486696
vt 0.53317761 0.84519131
vt 0.53317761 0.85872063
vt 0.53317761 0.70097640
vt 0.53317761 0.70097640
vt 0.53317761 0.70757889
vt 0.53317761 0.83166199
vt 0.53978009 0.70097640
vt 0.53978009 0.83166199
vt 0.53978009 0.83166199
vt 0.54638258 0.70097640
vt 0.54638258 0.78711363
vt 0.54638258 0.78711363
vt 0.54638258 0.79928445
vt 0.54638258 0.81145527
vt 0.54638258 0.83166199
vt 0.54905986 0.84519131
vt 0.59977662 0.43403919
vt 0.59977662 0.62157402
vt 0.59977662 0.70097640
vt 0.59977662 0.43403919
vt 0.59977662 0.62157402
vt 0.59977662 0.65640627
vt 0.61330594 0.52017642
vt 0.61330594 0.60631365
vt 0.61330594 0.43403919
vt 0.61330594 0.48544704
vt 0.61330594 0.62157402
vt 0.62523367 0.60631365
vt 0.62547676 0.52017642
vt 0.62547676 0.60607056
vt 0.63272772 0.43403919
vt 0.63464277 0.69075428
vt 0.63464277 0.69123851
vt 0.63464277 0.65592204
vt 0.63464277 0.65640627
vt 0.64412408 0.85872063
vt 0.64423737 0.70097640
vt 0.64423737 0.78711363
vt 0.64423737 0.78711363
vt 0.64423737 0.79928445
vt 0.64423737 0.81145527
vt 0.64803532 0.43403919
vt 0.64803532 0.51993333
vt 0.64827841 0.52017642
vt 0.66000633 0.84519131
vt 0.66000633 0.83166199
vt 0.66000633 0.84519131
vt 0.66020614 0.57158427
vt 0.66020614 0.43403919
vt 0.66020614 0.52017642
vt 0.66567882 0.0000000e+0
vt 0.66567882 0.33202223
vt 0.66567882 0.43257832
vt 0.66567882 0.76541773
vt 0.66567882 2.1323502e-3
vt 0.66567882 0.20351111
vt 0.66567882 0.76541773
vt 0.66567882 0.85155496
vt 0.66638717 0.18732328
vt 0.66670735 0.18519093
vt 0.66676958 0.20146215
vt 0.66725618 0.32867942
vt 0.67333827 0.20792618
vt 0.67362122 0.29322304
vt 0.67366270 0.29274677
vt 0.67435434 0.25321783
vt 0.69979555 0.43257832
vt 0.76353361 0.76541773
vt 0.76353361 0.81419087
vt 0.76353361 0.82377661
vt 0.76353361 0.85155496
vt 0.77116495 0.20792618
vt 0.77148939 0.29274677
vt 0.77153451 0.29322304
vt 0.77218102 0.25321783
vt 0.77659343 2.1323502e-3
vt 0.77662529 0.43257832
vt 0.77730177 0.18732328
vt 0.77768419 0.20146215
vt 0.77817079 0.32867942
vt 0.79279129 0.0000000e+0
vt 0.79298459 5.0537112e-2
vt 0.79349964 0.18519093
vt 0.79583074 5.3337912e-2
vt 0.79632436 0.18239013
vt 0.86138840 0.76541773
vt 0.86138840 0.81419087
vt 0.86138840 0.82377661
vt 0.86138840 0.76541773
vt 0.86138840 0.81419087
vt 0.86138840 0.82377661
vt 0.87168952 0.43257832
vt 0.88782821 0.0000000e+0
vt 0.88852585 0.18239013
vt 0.88853656 0.18519093
vt 0.88859880 0.20146215
vt 0.88908539 0.32867942
vt 0.89516748 0.20792618
vt 0.89545043 0.29322304
vt 0.89549192 0.29274677
vt 0.89618355 0.25321783
vt 0.95924318 0.83459799
vt 0.95924318 0.83508222
vt 0.95924318 0.76541773
vt 0.95924318 0.79976574
vt 0.95924318 0.80024997
vt 0.95924318 0.81419087
vt 0.95924318 0.82377661
vt 0.96665610 0.43257832
vt 0.99299416 0.20792618
vt 0.99331860 0.29274677
vt 0.99336373 0.29322304
vt 0.99401023 0.25321783
vt 0.99410933 0.80024997
vt 0.99410933 0.76541773
vt 0.99611140 5.3337912e-2
vt 0.99660502 0.18239013
vt 0.99851823 0.43257832
vt 0.99851823 0.76541773
vt 0.99874282 0.0000000e+0
vt 0.99893612 5.0537112e-2
vt 0.99945117 0.18519093
vt 0.99951340 0.20146215
vt 1.00000000 0.32867942
vn -0.57735027 -0.57735027 -0.57735027
vn 0.0000000e+0 0.0000000e+0 0.0000000e+0
vn -0.68954967 0.22145546 -0.68954967
vn -0.54296623 0.17437879 0.82144977
vn 0.57735027 -0.57735027 -0.57735027
vn 0.57735027 -0.57735027 0.57735027
vn 0.68954967 0.22145546 -0.68954967
vn 0.54296623 0.17437879 0.82144977
vn -0.45029406 0.77101914 -0.45029406
vn -0.45029406 0.77101914 0.45029406
vn 0.45029406 0.77101914 0.45029406
vn 0.45029406 0.77101914 -0.45029406
vn 0.55470020 0.0000000e+0 0.83205029
vn 0.70710678 0.0000000e+0 -0.70710678
vn -0.55470020 0.0000000e+0 0.83205029
vn -0.70710678 0.0000000e+0 -0.70710678
vn 0.0000000e+0 7.9020022e-2 0.99687303
vn 0.0000000e+0 7.9020022e-2 0.99687303
vn 0.0000000e+0 0.0000000e+0 1.00000000
vn 0.0000000e+0 0.0000000e+0 1.00000000
vn -0.40824829 0.40824829 0.81649658
vn -6.2807751e-2 -0.74579435 -0.66320885
vn 6.2807751e-2 -0.74579435 -0.66320885
vn 0.40824829 0.40824829 0.81649658
vn 6.2807751e-2 -0.74579435 -0.66320885
vn 0.40824829 0.40824829 0.81649658
vn -0.40824829 0.40824829 0.81649658
vn -6.2807751e-2 -0.74579435 -0.66320885
vn 0.57735027 -0.57735027 0.57735027
vn 0.57735027 0.57735027 0.57735027
vn -0.57735027 0.57735027 0.57735027
vn -0.57735027 -0.57735027 0.57735027
vn -0.57735027 0.57735027 0.57735027
vn -0.57735027 -0.57735027 0.57735027
vn 0.57735027 -0.57735027 0.57735027
vn 0.57735027 0.57735027 0.57735027
vn -0.34551177 0.0000000e+0 0.93841442
vn 0.0000000e+0 -0.70710678 0.70710678
vn -0.73426579 -0.62763886 -0.25869520
vn -0.74009664 -6.5431859e-2 0.66930982
vn 0.34575515 0.21453350 0.91347072
vn 0.73426579 -0.62763886 -0.25869520
vn 0.74009664 -6.5431859e-2 0.66930982
vn -0.34575515 0.21453350 0.91347072
vn 0.73426579 -0.62763886 -0.25869520
vn 0.74009664 -6.5431859e-2 0.66930982
vn -0.34575515 0.21453350 0.91347072
vn -0.73426579 -0.62763886 -0.25869520
vn -0.74009664 -6.5431859e-2 0.66930982
vn 0.34575515 0.21453350 0.91347072
vn -0.13212032 -0.20374271 0.97006862
vn 0.0000000e+0 -0.70710678 0.70710678
vn -0.30492910 -0.47023111 0.82819137
vn 0.57735027 -0.57735027 0.57735027
vn 0.57735027 0.57735027 0.57735027
vn -0.30492910 0.47023111 0.82819137
vn 0.31622777 0.0000000e+0 0.94868330
vn 0.0000000e+0 0.0000000e+0 1.00000000
vn -0.16990087 0.0000000e+0 0.98546116
vn 0.31622777 0.0000000e+0 0.94868330
vn 0.40824829 0.40824829 0.81649658
vn -0.40824829 0.40824829 0.81649658
vn -0.40824829 -0.40824829 0.81649658
vn 2.1900623e-9 -0.70710678 0.70710678
vn 0.40824829 -0.40824829 0.81649658
vn 0.57735027 0.57735027 0.57735027
vn -0.57735027 0.57735027 0.57735027
vn -0.57735027 -0.57735027 0.57735027
vn 2.7702340e-9 -0.89442719 0.44721360
vn 0.57735027 -0.57735027 0.57735027
g Cube3_copy4_Cube3_copy4_auv
usemtl Cube3_copy4_auv
s 1
f 1/168/1 5/103/5 6/102/6 38/126/38 37/141/37 2/167/2
f 2/23/2 52/24/52 15/29/15 16/5/16 1/4/1
f 2/69/2 55/74/55 54/76/54 52/70/52
f 3/35/3 9/22/9 12/13/12 7/3/7
f 3/6/3 16/5/16 15/29/15 4/25/4
f 4/25/4 10/21/10 9/12/9 3/6/3
f 4/111/4 44/113/44 41/123/41 17/129/17
f 5/100/5 14/105/14 13/29/13 57/28/57 60/27/60 6/26/6
f 7/101/7 12/80/12 11/42/11 8/30/8
f 7/3/7 14/2/14 16/32/16 3/35/3
f 8/30/8 13/29/13 14/105/14 7/101/7
f 8/173/8 50/161/50 49/160/49 27/159/27 13/172/13
f 10/33/10 11/66/11 12/68/12 9/34/9
f 13/172/13 27/159/27 26/147/26 20/145/20
f 15/110/15 24/112/24 43/114/43 44/113/44 4/111/4
f 15/110/15 52/109/52 51/132/51 19/128/19
f 16/32/16 14/2/14 5/1/5 1/31/1
f 17/129/17 18/146/18 8/173/8 11/158/11 10/116/10 4/111/4
f 17/129/17 19/128/19 20/145/20 18/146/18
f 17/129/17 41/123/41 40/122/40 21/121/21 19/128/19
f 18/146/18 47/148/47 50/161/50 8/173/8
f 19/128/19 21/121/21 24/112/24 15/110/15
f 19/128/19 51/132/51 58/144/58 20/145/20
f 20/145/20 26/147/26 46/149/46 47/148/47 18/146/18
f 20/145/20 58/144/58 57/171/57 13/172/13
f 21/89/21 33/90/33 36/63/36 24/62/24
f 22/15/22 39/9/39 40/11/40
f 22/124/22 41/123/41 44/113/44 23/115/23
f 23/135/23 42/136/42 39/118/39 22/117/22
f 23/14/23 43/16/43 42/18/42
f 23/164/23 44/155/44 43/154/43
f 24/17/24 36/19/36 35/20/35 42/18/42 43/16/43
f 25/153/25 45/156/45 48/139/48 28/138/28
f 25/75/25 46/92/46 45/93/45
f 25/163/25 47/152/47 46/151/46
f 26/91/26 30/98/30 29/99/29 45/93/45 46/92/46
f 27/87/27 31/89/31 30/62/30 26/60/26
f 28/97/28 48/77/48 49/79/49
f 28/162/28 50/161/50 47/148/47 25/150/25
f 30/106/30 31/117/31 32/120/32 29/107/29
f 31/72/31 27/78/27 49/79/49 48/77/48 32/73/32
f 32/140/32 48/139/48 45/156/45 29/157/29
f 33/7/33 21/10/21 40/11/40 39/9/39 34/8/34
f 34/88/34 35/61/35 36/59/36 33/86/33
f 34/119/34 39/118/39 42/136/42 35/137/35
f 37/94/37 56/85/56 55/51/55 2/50/2
f 40/81/40 41/82/41 22/71/22
f 49/83/49 50/84/50 28/67/28
f 51/132/51 53/127/53 56/125/56 37/130/37 59/131/59
f 51/132/51 65/134/65 64/143/64 58/144/58
f 52/95/52 54/96/54 53/65/53 51/55/51
f 54/108/54 55/104/55 56/125/56 53/127/53
f 57/171/57 63/166/63 62/165/62 60/170/60
f 58/144/58 64/143/64 63/166/63 57/171/57
f 59/131/59 61/133/61 65/134/65 51/132/51
f 60/170/60 59/131/59 37/130/37 38/142/38 6/169/6
f 60/170/60 62/165/62 61/133/61 59/131/59
f 61/56/61 66/59/66 70/64/70 65/57/65
f 62/47/62 67/49/67 66/40/66 61/39/61
f 63/58/63 68/55/68 67/52/67 62/56/62
f 64/44/64 69/45/69 68/41/68 63/36/63
f 65/53/65 70/54/70 69/45/69 64/44/64
f 67/46/67 68/48/68 69/43/69 70/38/70 66/37/66
