# Exported from Wings 3D 1.5.2
mtllib building_02.mtl
o Cube1
#137 vertices, 135 faces
v -1.88400000 -1.43560800 -1.88400000
v -1.88400000 -1.43560800 1.88400000
v -1.88400000 4.04396924 -1.88400000
v -1.88400000 4.04396924 1.88400000
v 1.88400000 -1.43560800 -1.88400000
v 1.88400000 -1.43560800 1.88400000
v 1.88400000 4.04396924 -1.88400000
v 1.88400000 4.04396924 1.88400000
v -2.01671040 0.39091775 -2.01671040
v -2.01671040 2.21744350 -2.01671040
v -2.01671040 0.39091775 2.01671040
v -2.01671040 2.21744350 2.01671040
v 2.01671040 0.39091775 -2.01671040
v 2.01671040 2.21744350 -2.01671040
v 2.01671040 0.39091775 2.01671040
v 2.01671040 2.21744350 2.01671040
v -1.88400000 2.21744350 1.55566080
v -1.88400000 2.21744350 -1.55566080
v -1.88400000 0.39091775 -1.55566080
v -1.88400000 0.39091775 1.55566080
v 1.88400000 2.21744350 -1.55566080
v 1.88400000 2.21744350 1.55566080
v 1.88400000 0.39091775 1.55566080
v 1.88400000 0.39091775 -1.55566080
v -1.55566080 2.21744350 -1.88400000
v 1.55566080 2.21744350 -1.88400000
v 1.55566080 0.39091775 -1.88400000
v -1.55566080 0.39091775 -1.88400000
v 1.55566080 2.21744350 1.88400000
v -1.55566080 2.21744350 1.88400000
v -1.55566080 0.39091775 1.88400000
v 1.55566080 0.39091775 1.88400000
v 1.88400000 4.04396924 -1.55566080
v 1.88400000 4.04396924 1.55566080
v 1.88400000 -1.43560800 1.55566080
v 1.88400000 -1.43560800 -1.55566080
v 1.55566080 4.04396924 1.88400000
v -1.55566080 4.04396924 1.88400000
v -1.55566080 4.04396924 -1.88400000
v 1.55566080 4.04396924 -1.88400000
v -1.88400000 4.04396924 1.55566080
v -1.88400000 4.04396924 -1.55566080
v -1.55566080 -1.43560800 1.88400000
v 1.55566080 -1.43560800 1.88400000
v 1.55566080 -1.43560800 -1.88400000
v -1.55566080 -1.43560800 -1.88400000
v -1.88400000 -1.43560800 -1.55566080
v -1.88400000 -1.43560800 1.55566080
v 2.01671040 -1.43560800 2.01671040
v 2.01671040 4.04396924 2.01671040
v 2.01671040 2.21744350 1.55566080
v 2.01671040 0.39091775 1.55566080
v 1.55566080 2.21744350 2.01671040
v 1.55566080 0.39091775 2.01671040
v 2.01671040 -1.43560800 1.55566080
v 1.55566080 4.04396924 2.01671040
v 2.01671040 4.04396924 1.55566080
v 1.55566080 -1.43560800 2.01671040
v -2.01671040 -1.43560800 -2.01671040
v -2.01671040 4.04396924 -2.01671040
v -2.01671040 2.21744350 -1.55566080
v -2.01671040 0.39091775 -1.55566080
v -1.55566080 2.21744350 -2.01671040
v -1.55566080 0.39091775 -2.01671040
v -2.01671040 4.04396924 -1.55566080
v -1.55566080 4.04396924 -2.01671040
v -1.55566080 -1.43560800 -2.01671040
v -2.01671040 -1.43560800 -1.55566080
v 2.01671040 -1.43560800 -2.01671040
v 2.01671040 4.04396924 -2.01671040
v 2.01671040 2.21744350 -1.55566080
v 2.01671040 0.39091775 -1.55566080
v 1.55566080 2.21744350 -2.01671040
v 1.55566080 0.39091775 -2.01671040
v 2.01671040 4.04396924 -1.55566080
v 2.01671040 -1.43560800 -1.55566080
v 1.55566080 4.04396924 -2.01671040
v 1.55566080 -1.43560800 -2.01671040
v -2.01671040 -1.43560800 2.01671040
v -2.01671040 4.04396924 2.01671040
v -2.01671040 2.21744350 1.55566080
v -2.01671040 0.39091775 1.55566080
v -1.55566080 2.21744350 2.01671040
v -1.55566080 0.39091775 2.01671040
v -2.01671040 4.04396924 1.55566080
v -1.55566080 -1.43560800 2.01671040
v -2.01671040 -1.43560800 1.55566080
v -1.55566080 4.04396924 2.01671040
v -1.09414810 2.21744350 1.88400000
v 1.09414810 2.21744350 1.88400000
v -1.09414810 0.39091775 1.88400000
v 1.09414810 0.39091775 1.88400000
v 1.09414810 4.04396924 1.88400000
v -1.09414810 4.04396924 1.88400000
v 1.09414810 3.13070637 1.88400000
v -1.09414810 3.13070637 1.88400000
v 1.09414810 1.30418062 1.88400000
v -1.09414810 1.30418062 1.88400000
v 1.09414810 1.30418062 2.38656807
v -1.09414810 1.30418062 2.38656807
v -1.09414810 0.39091775 2.38656807
v 1.09414810 0.39091775 2.38656807
v 1.09414810 3.13070637 2.38656807
v -1.09414810 3.13070637 2.38656807
v -1.09414810 2.21744350 2.38656807
v 1.09414810 2.21744350 2.38656807
v -1.08688835 -1.43560800 1.88400000
v 1.08688835 -1.43560800 1.88400000
v -1.78710857 4.04396924 -1.78710857
v -1.78710857 4.04396924 -1.55566080
v -1.78710857 4.04396924 1.55566080
v -1.78710857 4.04396924 1.78710857
v -1.55566080 4.04396924 1.78710857
v -1.09414810 4.04396924 1.78710857
v 1.09414810 4.04396924 1.78710857
v 1.55566080 4.04396924 1.78710857
v 1.78710857 4.04396924 1.78710857
v 1.78710857 4.04396924 1.55566080
v 1.78710857 4.04396924 -1.55566080
v 1.78710857 4.04396924 -1.78710857
v 1.55566080 4.04396924 -1.78710857
v -1.55566080 4.04396924 -1.78710857
v -1.25097600 5.56469861 -1.17438563
v -1.25097600 5.56469861 -1.01237219
v -1.25097600 5.56469861 1.16555293
v -1.25097600 5.56469861 1.32756637
v -1.08896256 5.56469861 1.32756637
v -0.76590367 5.56469861 1.32756637
v 0.76590367 5.56469861 1.32756637
v 1.08896256 5.56469861 1.32756637
v 1.25097600 5.56469861 1.32756637
v 1.25097600 5.56469861 1.16555293
v 1.25097600 5.56469861 -1.01237219
v 1.25097600 5.56469861 -1.17438563
v 1.08896256 5.56469861 -1.17438563
v -1.08896256 5.56469861 -1.17438563
v -3.1720658e-17 6.07842154 0.25530122
vt 0.0000000e+0 0.36352206
vt 0.0000000e+0 0.36352206
vt 0.0000000e+0 0.48469609
vt 0.0000000e+0 0.60587011
vt 0.0000000e+0 0.72704413
vt 0.0000000e+0 0.83401735
vt 0.0000000e+0 0.84476553
vt 0.0000000e+0 0.98925182
vt 0.0000000e+0 1.00000000
vt 1.3877788e-17 0.24234804
vt 2.7755576e-17 0.12117402
vt 5.5511151e-17 0.0000000e+0
vt 1.0748176e-2 0.83401735
vt 1.0748176e-2 1.00000000
vt 1.5354537e-2 0.72704413
vt 3.2180310e-2 0.83401735
vt 4.0648812e-2 0.83401735
vt 5.1396988e-2 0.83401735
vt 8.2991325e-2 0.90515277
vt 0.13380234 0.83401735
vt 0.15523447 0.83401735
vt 0.15523447 1.00000000
vt 0.16598265 0.83401735
vt 0.16598265 0.84476553
vt 0.16598265 0.86735835
vt 0.16598265 0.98925182
vt 0.16598265 1.00000000
vt 0.19588329 0.83401735
vt 0.20640900 0.36352206
vt 0.20640900 0.24234804
vt 0.20640900 0.36352206
vt 0.20640900 0.48469609
vt 0.20640900 0.60587011
vt 0.20640900 0.72704413
vt 0.20640900 2.7755576e-17
vt 0.20640900 0.12117402
vt 0.20640900 0.0000000e+0
vt 0.20640900 0.12117402
vt 0.20640900 0.24234804
vt 0.20640900 0.36352206
vt 0.20663146 0.83401735
vt 0.22176354 0.72704413
vt 0.23699561 0.36352206
vt 0.23699561 0.48469609
vt 0.23699561 0.60587011
vt 0.23699561 0.72704413
vt 0.23711807 0.72704413
vt 0.23711807 0.72704413
vt 0.25247261 0.72704413
vt 0.26758222 0.36352206
vt 0.26758222 0.48469609
vt 0.26758222 0.60587011
vt 0.26758222 0.72704413
vt 0.26758222 0.36352206
vt 0.26758222 0.48469609
vt 0.26758222 0.60587011
vt 0.26758222 0.72704413
vt 0.26760468 0.83401735
vt 0.27835286 0.83401735
vt 0.29816883 0.36352206
vt 0.29816883 0.48469609
vt 0.29816883 0.60587011
vt 0.29816883 0.72704413
vt 0.31115698 0.83401735
vt 0.31115698 0.86735835
vt 0.31115698 0.83401735
vt 0.31115698 0.86735835
vt 0.32875545 0.36352206
vt 0.32875545 0.48469609
vt 0.32875545 0.60587011
vt 0.32875545 0.72704413
vt 0.35934206 0.36352206
vt 0.35934206 0.48469609
vt 0.35934206 0.60587011
vt 0.35934206 0.72704413
vt 0.35934206 0.36352206
vt 0.35934206 0.48469609
vt 0.35934206 0.60587011
vt 0.35934206 0.72704413
vt 0.38992867 0.36352206
vt 0.38992867 0.48469609
vt 0.38992867 0.60587011
vt 0.38992867 0.72704413
vt 0.39873285 0.36352206
vt 0.39873285 0.48469609
vt 0.39873285 0.60587011
vt 0.39873285 0.72704413
vt 0.39873285 0.36352206
vt 0.39873285 0.48469609
vt 0.39873285 0.60587011
vt 0.39873285 0.72704413
vt 0.40753702 0.36352206
vt 0.40753702 0.48469609
vt 0.40753702 0.60587011
vt 0.40753702 0.72704413
vt 0.40753702 0.36352206
vt 0.40753702 0.48469609
vt 0.40753702 0.60587011
vt 0.40753702 0.72704413
vt 0.41281800 0.0000000e+0
vt 0.41281800 0.12117402
vt 0.41281800 0.24234804
vt 0.41281800 0.36352206
vt 0.41634120 0.36352206
vt 0.41634120 0.48469609
vt 0.41634120 0.60587011
vt 0.41634120 0.72704413
vt 0.41634120 0.36352206
vt 0.41634120 0.48469609
vt 0.41634120 0.60587011
vt 0.41634120 0.72704413
vt 0.42283916 0.83401735
vt 0.42514537 0.36352206
vt 0.42514537 0.48469609
vt 0.42514537 0.60587011
vt 0.42514537 0.72704413
vt 0.43358733 0.83401735
vt 0.43394955 0.36352206
vt 0.43394955 0.48469609
vt 0.43394955 0.60587011
vt 0.43394955 0.72704413
vt 0.43394955 0.36352206
vt 0.43394955 0.48469609
vt 0.43394955 0.60587011
vt 0.43394955 0.72704413
vt 0.44275372 0.36352206
vt 0.44275372 0.48469609
vt 0.44275372 0.60587011
vt 0.44275372 0.72704413
vt 0.44275372 0.36352206
vt 0.44275372 0.48469609
vt 0.44275372 0.60587011
vt 0.44275372 0.72704413
vt 0.44343533 0.12117402
vt 0.44343533 0.18176103
vt 0.44343533 0.24234804
vt 0.44343533 0.30293505
vt 0.44343533 0.36352206
vt 0.44391695 0.0000000e+0
vt 0.45155790 0.36352206
vt 0.45155790 0.48469609
vt 0.45155790 0.60587011
vt 0.45155790 0.72704413
vt 0.45155790 0.36352206
vt 0.45155790 0.48469609
vt 0.45155790 0.60587011
vt 0.45155790 0.72704413
vt 0.45633131 0.83401735
vt 0.45633131 0.86735835
vt 0.45633131 0.83401735
vt 0.45633131 0.86735835
vt 0.45888161 0.72704413
vt 0.46036207 0.36352206
vt 0.46036207 0.48469609
vt 0.46036207 0.48469609
vt 0.46036207 0.60587011
vt 0.46036207 0.72704413
vt 0.46036207 0.60587011
vt 0.46036207 0.72704413
vt 0.47423615 0.72704413
vt 0.47423615 0.72704413
vt 0.48959068 0.72704413
vt 0.49094868 0.36352206
vt 0.49094868 0.48469609
vt 0.49094868 0.60587011
vt 0.49094868 0.72704413
vt 0.49094868 0.36352206
vt 0.49094868 0.48469609
vt 0.50980386 0.83243692
vt 0.52020802 0.72704413
vt 0.52055203 0.83243692
vt 0.52153530 0.36352206
vt 0.52153530 0.36352206
vt 0.52153530 0.42410908
vt 0.52153530 0.48469609
vt 0.52153530 0.48469609
vt 0.52153530 0.54528310
vt 0.52153530 0.54528310
vt 0.52153530 0.60587011
vt 0.52153530 0.72704413
vt 0.54198417 0.83243692
vt 0.55487630 0.36352206
vt 0.55487630 0.42410908
vt 0.55487630 0.48469609
vt 0.55487630 0.48469609
vt 0.55487630 0.54528310
vt 0.55487630 0.54528310
vt 0.55487630 0.60587011
vt 0.58812804 0.0000000e+0
vt 0.58860966 0.12117402
vt 0.58860966 0.18176103
vt 0.58860966 0.24234804
vt 0.58860966 0.30293505
vt 0.58860966 0.36352206
vt 0.60150564 0.83401735
vt 0.60150564 0.86735835
vt 0.61922700 0.0000000e+0
vt 0.61922700 3.0586612e-2
vt 0.61922700 0.12117402
vt 0.61922700 0.23699561
vt 0.61922700 0.24234804
vt 0.61922700 0.26758222
vt 0.61922700 0.26758222
vt 0.61922700 0.29816883
vt 0.61922700 0.36352206
vt 0.61922700 0.50457783
vt 0.61922700 0.53516444
vt 0.61922700 0.64393270
vt 0.61922700 0.70451971
vt 0.61922700 0.0000000e+0
vt 0.62803117 0.23699561
vt 0.62803117 0.25877805
vt 0.62803117 0.27638640
vt 0.62803117 0.29816883
vt 0.62803117 0.50457783
vt 0.62803117 0.52636027
vt 0.62803117 8.8041753e-3
vt 0.62803117 3.0586612e-2
vt 0.63445907 0.28281430
vt 0.63445907 0.29816883
vt 0.63445907 0.50457783
vt 0.63445907 0.51993237
vt 0.63458153 0.53516444
vt 0.64360620 0.83243692
vt 0.64981361 2.7755576e-17
vt 0.64981361 8.8041753e-3
vt 0.64981361 0.25877805
vt 0.64981361 0.26758222
vt 0.64981361 0.27638640
vt 0.64981361 0.28281430
vt 0.64981361 0.51993237
vt 0.64981361 0.52636027
vt 0.64981361 0.53516444
vt 0.65479471 0.64393270
vt 0.66503833 0.83243692
vt 0.66538235 0.72704413
vt 0.66554288 0.64393270
vt 0.67578651 0.83243692
vt 0.68043094 0.27638640
vt 0.68043094 0.28281430
vt 0.68091256 8.8041753e-3
vt 0.69599968 0.72704413
vt 0.71135422 0.72704413
vt 0.71135422 0.78763114
vt 0.71135422 0.82097214
vt 0.71135422 0.72704413
vt 0.76440132 0.64393270
vt 0.76440132 0.70451971
vt 0.81002918 0.64393270
vt 0.82077736 0.64393270
vt 0.82512365 8.8041753e-3
vt 0.82560527 0.27638640
vt 0.82560527 0.28281430
vt 0.84099053 0.53516444
vt 0.85622261 2.7755576e-17
vt 0.85622261 8.8041753e-3
vt 0.85622261 0.25877805
vt 0.85622261 0.26758222
vt 0.85622261 0.27638640
vt 0.85622261 0.28281430
vt 0.85622261 0.51993237
vt 0.85622261 0.52636027
vt 0.85622261 0.53516444
vt 0.85634507 0.53516444
vt 0.85652855 0.72704413
vt 0.85652855 0.78763114
vt 0.85652855 0.82097214
vt 0.87157714 0.28281430
vt 0.87157714 0.29816883
vt 0.87157714 0.50457783
vt 0.87157714 0.51993237
vt 0.87800504 0.23699561
vt 0.87800504 0.25877805
vt 0.87800504 8.8041753e-3
vt 0.87800504 3.0586612e-2
vt 0.87800504 0.27638640
vt 0.87800504 0.29816883
vt 0.87800504 0.50457783
vt 0.87800504 0.52636027
vt 0.88680922 0.26758222
vt 0.88680922 8.3266727e-17
vt 0.88680922 3.0586612e-2
vt 0.88680922 0.23699561
vt 0.88680922 0.26758222
vt 0.88680922 0.29816883
vt 0.88680922 0.50457783
vt 0.88680922 0.53516444
vn 0.0000000e+0 -1.00000000 6.5163919e-18
vn 0.0000000e+0 -1.00000000 6.5163919e-18
vn 0.0000000e+0 1.00000000 0.0000000e+0
vn 0.0000000e+0 1.00000000 0.0000000e+0
vn 0.0000000e+0 -1.00000000 6.5163919e-18
vn 0.0000000e+0 -1.00000000 6.5163919e-18
vn 0.0000000e+0 1.00000000 0.0000000e+0
vn 0.0000000e+0 1.00000000 0.0000000e+0
vn -0.70710678 0.0000000e+0 -0.70710678
vn -0.70710678 0.0000000e+0 -0.70710678
vn -0.70710678 0.0000000e+0 0.70710678
vn -0.70710678 0.0000000e+0 0.70710678
vn 0.70710678 0.0000000e+0 -0.70710678
vn 0.70710678 0.0000000e+0 -0.70710678
vn 0.70710678 0.0000000e+0 0.70710678
vn 0.70710678 0.0000000e+0 0.70710678
vn -0.70710678 0.0000000e+0 -0.70710678
vn -0.70710678 0.0000000e+0 0.70710678
vn -0.70710678 0.0000000e+0 0.70710678
vn -0.70710678 0.0000000e+0 -0.70710678
vn 0.70710678 0.0000000e+0 0.70710678
vn 0.70710678 0.0000000e+0 -0.70710678
vn 0.70710678 0.0000000e+0 -0.70710678
vn 0.70710678 0.0000000e+0 0.70710678
vn 0.70710678 0.0000000e+0 -0.70710678
vn -0.70710678 0.0000000e+0 -0.70710678
vn -0.70710678 0.0000000e+0 -0.70710678
vn 0.70710678 0.0000000e+0 -0.70710678
vn -0.70710678 0.0000000e+0 0.70710678
vn 0.70710678 0.0000000e+0 0.70710678
vn 0.70710678 0.0000000e+0 0.70710678
vn -0.70710678 0.0000000e+0 0.70710678
vn 0.30151134 0.90453403 0.30151134
vn 0.30151134 0.90453403 -0.30151134
vn 0.40824829 -0.81649658 -0.40824829
vn 0.40824829 -0.81649658 0.40824829
vn -0.30151134 0.90453403 0.30151134
vn 0.30151134 0.90453403 0.30151134
vn 0.30151134 0.90453403 -0.30151134
vn -0.30151134 0.90453403 -0.30151134
vn -0.30151134 0.90453403 -0.30151134
vn -0.30151134 0.90453403 0.30151134
vn 0.40824829 -0.81649658 0.40824829
vn -0.40824829 -0.81649658 0.40824829
vn -0.40824829 -0.81649658 -0.40824829
vn 0.40824829 -0.81649658 -0.40824829
vn -0.40824829 -0.81649658 0.40824829
vn -0.40824829 -0.81649658 -0.40824829
vn 0.40824829 -0.81649658 0.40824829
vn 0.40824829 0.81649658 0.40824829
vn 0.70710678 0.0000000e+0 -0.70710678
vn 0.70710678 0.0000000e+0 -0.70710678
vn -0.70710678 0.0000000e+0 0.70710678
vn -0.70710678 0.0000000e+0 0.70710678
vn 0.57735027 -0.57735027 -0.57735027
vn -0.57735027 0.57735027 0.57735027
vn 0.57735027 0.57735027 -0.57735027
vn -0.57735027 -0.57735027 0.57735027
vn -0.40824829 -0.81649658 -0.40824829
vn -0.40824829 0.81649658 -0.40824829
vn -0.70710678 0.0000000e+0 0.70710678
vn -0.70710678 0.0000000e+0 0.70710678
vn 0.70710678 0.0000000e+0 -0.70710678
vn 0.70710678 0.0000000e+0 -0.70710678
vn -0.57735027 0.57735027 0.57735027
vn 0.57735027 0.57735027 -0.57735027
vn 0.57735027 -0.57735027 -0.57735027
vn -0.57735027 -0.57735027 0.57735027
vn 0.40824829 -0.81649658 -0.40824829
vn 0.40824829 0.81649658 -0.40824829
vn 0.70710678 0.0000000e+0 0.70710678
vn 0.70710678 0.0000000e+0 0.70710678
vn -0.70710678 0.0000000e+0 -0.70710678
vn -0.70710678 0.0000000e+0 -0.70710678
vn 0.57735027 0.57735027 0.57735027
vn 0.57735027 -0.57735027 0.57735027
vn -0.57735027 0.57735027 -0.57735027
vn -0.57735027 -0.57735027 -0.57735027
vn -0.40824829 -0.81649658 0.40824829
vn -0.40824829 0.81649658 0.40824829
vn -0.70710678 0.0000000e+0 -0.70710678
vn -0.70710678 0.0000000e+0 -0.70710678
vn 0.70710678 0.0000000e+0 0.70710678
vn 0.70710678 0.0000000e+0 0.70710678
vn -0.57735027 0.57735027 -0.57735027
vn 0.57735027 -0.57735027 0.57735027
vn -0.57735027 -0.57735027 -0.57735027
vn 0.57735027 0.57735027 0.57735027
vn -0.30151134 -0.30151134 0.90453403
vn 0.30151134 -0.30151134 0.90453403
vn -0.30151134 -0.30151134 0.90453403
vn 0.30151134 -0.30151134 0.90453403
vn 0.0000000e+0 0.70710678 0.70710678
vn 0.0000000e+0 0.70710678 0.70710678
vn 0.40824829 0.40824829 0.81649658
vn -0.40824829 0.40824829 0.81649658
vn 0.40824829 0.40824829 0.81649658
vn -0.40824829 0.40824829 0.81649658
vn 0.57735027 0.57735027 0.57735027
vn -0.57735027 0.57735027 0.57735027
vn -0.57735027 -0.57735027 0.57735027
vn 0.57735027 -0.57735027 0.57735027
vn 0.57735027 0.57735027 0.57735027
vn -0.57735027 0.57735027 0.57735027
vn -0.57735027 -0.57735027 0.57735027
vn 0.57735027 -0.57735027 0.57735027
vn 0.0000000e+0 -0.44721360 0.89442719
vn 0.0000000e+0 -0.44721360 0.89442719
vn -0.31309524 0.89841618 -0.30792813
vn -0.57771458 0.81623885 0.0000000e+0
vn -0.57771458 0.81623885 0.0000000e+0
vn -0.32012233 0.88991398 0.32492275
vn 0.0000000e+0 0.80289057 0.59612644
vn 0.0000000e+0 0.80289057 0.59612644
vn 0.0000000e+0 0.80289057 0.59612644
vn 0.0000000e+0 0.80289057 0.59612644
vn 0.32012233 0.88991398 0.32492275
vn 0.57771458 0.81623885 0.0000000e+0
vn 0.57771458 0.81623885 0.0000000e+0
vn 0.31309524 0.89841618 -0.30792813
vn 0.0000000e+0 0.82877001 -0.55958938
vn 0.0000000e+0 0.82877001 -0.55958938
vn -0.41900888 0.81470064 -0.40086708
vn -0.72480826 0.68895064 0.0000000e+0
vn -0.72480826 0.68895064 0.0000000e+0
vn -0.42530314 0.78717159 0.44662974
vn 0.0000000e+0 0.65087319 0.75918646
vn 0.0000000e+0 0.65087319 0.75918646
vn 0.0000000e+0 0.65087319 0.75918646
vn 0.0000000e+0 0.65087319 0.75918646
vn 0.42530314 0.78717159 0.44662974
vn 0.72480826 0.68895064 0.0000000e+0
vn 0.72480826 0.68895064 0.0000000e+0
vn 0.41900888 0.81470064 -0.40086708
vn 0.0000000e+0 0.72043330 -0.69352423
vn 0.0000000e+0 0.72043330 -0.69352423
vn 8.5840511e-18 0.99606747 8.8597944e-2
g Cube1_Cube1_auv
usemtl Cube1_auv
s 1
f 1/273/1 46/257/46 45/227/45 5/212/5 36/211/36 35/218/35 6/217/6 44/226/44 108/241/108 107/251/107 43/256/43 2/274/2 48/275/48 47/272/47
f 2/274/2 43/256/43 86/255/86 79/281/79
f 3/216/3 60/207/60 65/206/65 42/215/42
f 3/216/3 109/222/109 122/231/122 39/232/39
f 4/213/4 80/203/80 88/228/88 38/229/38
f 4/213/4 112/219/112 111/220/111 41/214/41
f 5/212/5 45/227/45 78/228/78 69/202/69
f 5/212/5 69/202/69 76/200/76 36/211/36
f 6/217/6 35/218/35 55/198/55 49/210/49
f 7/279/7 70/287/70 77/263/77 40/262/40
f 7/279/7 120/271/120 119/270/119 33/278/33
f 8/276/8 50/284/50 57/285/57 34/277/34
f 8/276/8 117/268/117 116/260/116 37/259/37
f 9/51/9 59/50/59 68/60/68 62/61/62
f 9/51/9 62/61/62 61/62/61 10/52/10
f 9/176/9 64/168/64 67/167/67 59/173/59
f 10/52/10 61/62/61 65/63/65 60/53/60
f 10/179/10 63/165/63 64/168/64 9/176/9
f 11/32/11 79/31/79 86/43/86 84/44/84
f 11/81/11 82/73/82 87/72/87 79/80/79
f 11/32/11 84/44/84 83/45/83 12/33/12
f 12/82/12 81/74/81 82/73/82 11/81/11
f 12/33/12 83/45/83 88/46/88 80/34/80
f 13/155/13 69/153/69 78/163/78 74/164/74
f 13/77/13 72/69/72 76/68/76 69/76/69
f 13/155/13 74/164/74 73/165/73 14/158/14
f 14/78/14 71/70/71 72/69/72 13/77/13
f 14/158/14 73/165/73 77/166/77 70/159/70
f 15/44/15 49/43/49 55/54/55 52/55/52
f 15/44/15 52/55/52 51/56/51 16/45/16
f 15/69/15 54/61/54 58/60/58 49/68/49
f 16/45/16 51/56/51 57/57/57 50/46/50
f 16/70/16 53/62/53 54/61/54 15/69/15
f 17/90/17 20/89/20 82/93/82 81/94/81
f 17/102/17 41/103/41 42/40/42 18/39/18
f 18/39/18 19/38/19 20/101/20 17/102/17
f 18/115/18 61/110/61 62/109/62 19/114/19
f 19/38/19 47/37/47 48/100/48 20/101/20
f 19/114/19 62/109/62 68/108/68 47/113/47
f 20/89/20 48/84/48 87/92/87 82/93/82
f 21/132/21 24/131/24 72/141/72 71/142/71
f 21/33/21 33/34/33 34/5/34 22/4/22
f 22/4/22 23/3/23 24/32/24 21/33/21
f 22/86/22 51/82/51 52/81/52 23/85/23
f 23/3/23 35/2/35 36/31/36 24/32/24
f 23/85/23 52/81/52 55/80/55 35/88/35
f 24/131/24 36/130/36 76/140/76 72/141/72
f 25/115/25 28/114/28 64/119/64 63/120/63
f 25/30/25 39/29/39 40/1/40 26/10/26
f 26/10/26 27/11/27 28/36/28 25/30/25
f 26/156/26 73/146/73 74/145/74 27/154/27
f 27/11/27 45/12/45 46/35/46 28/36/28
f 27/154/27 74/145/74 78/144/78 45/153/45
f 28/114/28 46/113/46 67/118/67 64/119/64
f 29/98/29 32/97/32 54/105/54 53/106/53
f 29/201/29 90/192/90 97/191/97 92/190/92 32/199/32
f 30/102/30 31/101/31 91/134/91 98/135/98 89/136/89
f 30/128/30 83/124/83 84/123/84 31/127/31
f 31/101/31 43/100/43 107/139/107 91/134/91
f 31/127/31 84/123/84 86/122/86 43/126/43
f 32/97/32 44/96/44 58/104/58 54/105/54
f 32/199/32 92/190/92 108/189/108 44/197/44
f 33/278/33 75/286/75 70/287/70 7/279/7
f 33/278/33 119/270/119 118/269/118 34/277/34
f 34/87/34 57/83/57 51/82/51 22/86/22
f 34/277/34 118/269/118 117/268/117 8/276/8
f 37/259/37 56/258/56 50/284/50 8/276/8
f 37/205/37 93/194/93 95/193/95 90/192/90 29/201/29
f 37/259/37 116/260/116 115/253/115 93/252/93
f 38/129/38 88/125/88 83/124/83 30/128/30
f 38/229/38 113/230/113 112/219/112 4/213/4
f 39/232/39 66/233/66 60/207/60 3/216/3
f 39/232/39 122/231/122 121/261/121 40/262/40
f 40/157/40 77/147/77 73/146/73 26/156/26
f 40/262/40 121/261/121 120/271/120 7/279/7
f 41/214/41 85/204/85 80/203/80 4/213/4
f 41/214/41 111/220/111 110/221/110 42/215/42
f 42/116/42 65/111/65 61/110/61 18/115/18
f 42/215/42 110/221/110 109/222/109 3/216/3
f 47/272/47 68/283/68 59/280/59 1/273/1
f 49/210/49 58/225/58 44/226/44 6/217/6
f 50/71/50 56/63/56 53/62/53 16/70/16
f 53/106/53 56/107/56 37/99/37 29/98/29
f 59/280/59 67/258/67 46/257/46 1/273/1
f 60/180/60 66/166/66 63/165/63 10/179/10
f 63/120/63 66/121/66 39/116/39 25/115/25
f 70/79/70 75/71/75 71/70/71 14/78/14
f 71/142/71 75/143/75 33/133/33 21/132/21
f 79/281/79 87/282/87 48/275/48 2/274/2
f 80/83/80 85/75/85 81/74/81 12/82/12
f 81/94/81 85/95/85 41/91/41 17/90/17
f 89/136/89 96/137/96 94/138/94 38/103/38 30/102/30
f 89/136/89 98/135/98 97/191/97 90/192/90
f 89/172/89 105/182/105 104/183/104 96/174/96
f 90/25/90 106/23/106 105/64/105 89/65/89
f 91/176/91 101/185/101 100/186/100 98/177/98
f 91/134/91 107/139/107 108/189/108 92/190/92
f 92/245/92 102/244/102 101/266/101 91/267/91
f 93/252/93 115/253/115 114/240/114 94/239/94
f 94/138/94 96/137/96 95/193/95 93/194/93
f 94/239/94 114/240/114 113/230/113 38/229/38
f 95/184/95 103/175/103 106/174/106 90/183/90
f 96/151/96 104/150/104 103/195/103 95/196/95
f 97/188/97 99/179/99 102/178/102 92/187/92
f 98/67/98 100/66/100 99/148/99 97/149/97
f 100/244/100 101/243/101 102/265/102 99/266/99
f 104/209/104 105/208/105 106/247/106 103/248/103
f 109/264/109 123/250/123 136/249/136 122/254/122
f 110/15/110 124/18/124 123/17/123 109/5/109
f 111/42/111 125/28/125 124/18/124 110/15/110
f 112/48/112 126/41/126 125/28/125 111/42/111
f 113/162/113 127/171/127 126/169/126 112/161/112
f 114/170/114 128/181/128 127/171/127 113/162/113
f 115/236/115 129/224/129 128/181/128 114/170/114
f 116/242/116 130/235/130 129/224/129 115/236/115
f 117/246/117 131/238/131 130/235/130 116/242/116
f 118/49/118 132/59/132 131/58/131 117/47/117
f 119/152/119 133/112/133 132/59/132 118/49/118
f 120/160/120 134/117/134 133/112/133 119/152/119
f 121/223/121 135/237/135 134/234/134 120/207/120
f 122/254/122 136/249/136 135/237/135 121/223/121
f 123/9/123 137/19/137 136/14/136
f 124/8/124 137/19/137 123/9/123
f 125/7/125 137/19/137 124/8/124
f 126/6/126 137/19/137 125/7/125
f 127/13/127 137/19/137 126/6/126
f 128/16/128 137/19/137 127/13/127
f 129/20/129 137/19/137 128/16/128
f 130/21/130 137/19/137 129/20/129
f 131/23/131 137/19/137 130/21/130
f 132/24/132 137/19/137 131/23/131
f 133/26/133 137/19/137 132/24/132
f 134/27/134 137/19/137 133/26/133
f 135/22/135 137/19/137 134/27/134
f 136/14/136 137/19/137 135/22/135
