# Exported from Wings 3D 1.5.2
mtllib sign_stop.mtl
o Cylinder1
#64 vertices, 36 faces
v 0.18403200 14.16985103 -3.7468917e-18
v 0.17002340 14.16985103 7.0425997e-2
v 0.13013028 14.16985103 0.13013028
v 7.0425997e-2 14.16985103 0.17002340
v -3.0418721e-17 14.16985103 0.18403200
v -7.0425997e-2 14.16985103 0.17002340
v -0.13013028 14.16985103 0.13013028
v -0.17002340 14.16985103 7.0425997e-2
v -0.18403200 14.16985103 1.8790528e-17
v -0.17002340 14.16985103 -7.0425997e-2
v -0.13013028 14.16985103 -0.13013028
v -7.0425997e-2 14.16985103 -0.17002340
v -7.5493561e-17 14.16985103 -0.18403200
v 7.0425997e-2 14.16985103 -0.17002340
v 0.13013028 14.16985103 -0.13013028
v 0.17002340 14.16985103 -7.0425997e-2
v 0.18403200 8.6854842e-2 -3.7468917e-18
v 0.17002340 8.6854842e-2 7.0425997e-2
v 0.13013028 8.6854842e-2 0.13013028
v 7.0425997e-2 8.6854842e-2 0.17002340
v -3.0418721e-17 8.6854842e-2 0.18403200
v -7.0425997e-2 8.6854842e-2 0.17002340
v -0.13013028 8.6854842e-2 0.13013028
v -0.17002340 8.6854842e-2 7.0425997e-2
v -0.18403200 8.6854842e-2 1.8790528e-17
v -0.17002340 8.6854842e-2 -7.0425997e-2
v -0.13013028 8.6854842e-2 -0.13013028
v -7.0425997e-2 8.6854842e-2 -0.17002340
v -7.5493561e-17 8.6854842e-2 -0.18403200
v 7.0425997e-2 8.6854842e-2 -0.17002340
v 0.13013028 8.6854842e-2 -0.13013028
v 0.17002340 8.6854842e-2 -7.0425997e-2
v 2.00000000 12.14776459 -0.15622651
v 1.84775907 11.38239772 -0.15622651
v 1.41421356 10.73355102 -0.15622651
v 0.76536686 10.30000552 -0.15622651
v 1.6756749e-16 10.14776459 -0.15622651
v -0.76536686 10.30000552 -0.15622651
v -1.41421356 10.73355102 -0.15622651
v -1.84775907 11.38239772 -0.15622651
v -2.00000000 12.14776459 -0.15622651
v -1.84775907 12.91313145 -0.15622651
v -1.41421356 13.56197815 -0.15622651
v -0.76536686 13.99552365 -0.15622651
v -3.2229123e-16 14.14776459 -0.15622651
v 0.76536686 13.99552365 -0.15622651
v 1.41421356 13.56197815 -0.15622651
v 1.84775907 12.91313145 -0.15622651
v 2.00000000 12.14776459 -0.35622651
v 1.84775907 11.38239772 -0.35622651
v 1.41421356 10.73355102 -0.35622651
v 0.76536686 10.30000552 -0.35622651
v 1.6756749e-16 10.14776459 -0.35622651
v -0.76536686 10.30000552 -0.35622651
v -1.41421356 10.73355102 -0.35622651
v -1.84775907 11.38239772 -0.35622651
v -2.00000000 12.14776459 -0.35622651
v -1.84775907 12.91313145 -0.35622651
v -1.41421356 13.56197815 -0.35622651
v -0.76536686 13.99552365 -0.35622651
v -3.2229123e-16 14.14776459 -0.35622651
v 0.76536686 13.99552365 -0.35622651
v 1.41421356 13.56197815 -0.35622651
v 1.84775907 12.91313145 -0.35622651
vt 0.0000000e+0 0.0000000e+0
vt 2.1337099e-16 1.00000000
vt 4.2394585e-3 0.0000000e+0
vt 4.2394585e-3 1.00000000
vt 9.2402407e-3 0.0000000e+0
vt 9.2402407e-3 1.00000000
vt 1.4241023e-2 0.0000000e+0
vt 1.4241023e-2 1.00000000
vt 1.8480481e-2 0.0000000e+0
vt 1.8480481e-2 1.00000000
vt 1.8480481e-2 0.0000000e+0
vt 1.8480481e-2 1.00000000
vt 2.2719940e-2 0.0000000e+0
vt 2.2719940e-2 1.00000000
vt 2.7720722e-2 0.0000000e+0
vt 2.7720722e-2 1.00000000
vt 3.2721504e-2 0.0000000e+0
vt 3.2721504e-2 1.00000000
vt 3.6960963e-2 0.0000000e+0
vt 3.6960963e-2 0.0000000e+0
vt 3.6960963e-2 1.00000000
vt 3.6960963e-2 1.00000000
vt 4.1200421e-2 0.0000000e+0
vt 4.1200421e-2 1.00000000
vt 4.6201204e-2 0.0000000e+0
vt 4.6201204e-2 1.00000000
vt 5.1201986e-2 0.0000000e+0
vt 5.1201986e-2 1.00000000
vt 5.5441444e-2 0.0000000e+0
vt 5.5441444e-2 1.00000000
vt 5.9680903e-2 0.0000000e+0
vt 5.9680903e-2 1.00000000
vt 6.4681685e-2 0.0000000e+0
vt 6.4681685e-2 1.00000000
vt 6.9682467e-2 0.0000000e+0
vt 6.9682467e-2 1.00000000
vt 7.3921926e-2 0.56806094
vt 7.3921926e-2 0.0000000e+0
vt 7.3921926e-2 1.00000000
vt 7.3921926e-2 0.14201523
vt 7.3921926e-2 0.42604570
vt 7.3921926e-2 0.58226246
vt 7.3921926e-2 0.58226246
vt 7.3921926e-2 0.59646398
vt 8.4732192e-2 8.7668357e-2
vt 8.4732192e-2 0.19636211
vt 8.4732192e-2 0.37169883
vt 8.4732192e-2 0.48039258
vt 0.11551722 0.32562577
vt 0.11551722 0.24243517
vt 0.11551722 4.1595299e-2
vt 0.11551722 0.52646564
vt 0.11999498 0.58226246
vt 0.11999498 0.59646398
vt 0.11999498 0.56806094
vt 0.11999498 0.58226246
vt 0.16159028 0.27322020
vt 0.16159028 0.29484073
vt 0.16159028 1.0810266e-2
vt 0.16159028 0.55725067
vt 0.17434186 0.56806094
vt 0.17434186 0.58226246
vt 0.17434186 0.58226246
vt 0.17434186 0.59646398
vt 0.21593716 0.28403047
vt 0.21593716 0.28403047
vt 0.21593716 0.0000000e+0
vt 0.21593716 0.56806094
vt 0.22868874 0.56806094
vt 0.22868874 0.58226246
vt 0.22868874 0.58226246
vt 0.22868874 0.59646398
vt 0.27028404 0.29484073
vt 0.27028404 1.0810266e-2
vt 0.27028404 0.27322020
vt 0.27028404 0.55725067
vt 0.27476180 0.56806094
vt 0.27476180 0.58226246
vt 0.27476180 0.58226246
vt 0.27476180 0.59646398
vt 0.27476180 0.61413399
vt 0.27476180 0.66848087
vt 0.27476180 0.72282775
vt 0.27476180 0.76890081
vt 0.27476180 0.76890081
vt 0.27476180 0.81497386
vt 0.27476180 0.86932074
vt 0.27476180 0.92366762
vt 0.27476180 0.98280835
vt 0.27476180 0.56806094
vt 0.27476180 0.96974068
vt 0.27575651 0.97780757
vt 0.27575651 0.98780913
vt 0.27858923 0.97356811
vt 0.27858923 0.99204859
vt 0.28282869 0.97073539
vt 0.28282869 0.99488131
vt 0.28782947 0.96974068
vt 0.28782947 0.99587602
vt 0.28896332 0.72282775
vt 0.28896332 0.76890081
vt 0.28896332 0.76890081
vt 0.28896332 0.56806094
vt 0.28896332 0.61413399
vt 0.28896332 0.66848087
vt 0.28896332 0.81497386
vt 0.28896332 0.86932074
vt 0.28896332 0.92366762
vt 0.28896332 0.96974068
vt 0.29283025 0.97073539
vt 0.29283025 0.99488131
vt 0.29706971 0.97356811
vt 0.29706971 0.99204859
vt 0.29990243 0.97780757
vt 0.29990243 0.98780913
vt 0.30089714 0.98280835
vt 0.30089714 0.98280835
vt 0.30189186 0.97780757
vt 0.30189186 0.98780913
vt 0.30472458 0.97356811
vt 0.30472458 0.99204859
vt 0.30896404 0.97073539
vt 0.30896404 0.99488131
vt 0.31396482 0.96974068
vt 0.31396482 0.99587602
vt 0.31635710 0.24243517
vt 0.31635710 0.32562577
vt 0.31635710 4.1595299e-2
vt 0.31635710 0.52646564
vt 0.31896560 0.97073539
vt 0.31896560 0.99488131
vt 0.32320506 0.97356811
vt 0.32320506 0.99204859
vt 0.32603777 0.97780757
vt 0.32603777 0.98780913
vt 0.32703249 0.98280835
vt 0.34714213 8.7668357e-2
vt 0.34714213 0.19636211
vt 0.34714213 0.37169883
vt 0.34714213 0.48039258
vt 0.35795239 0.14201523
vt 0.35795239 0.42604570
vn 0.89090915 0.45418155 0.0000000e+0
vn 0.82309273 0.45418155 0.34093617
vn 0.62996790 0.45418155 0.62996790
vn 0.34093617 0.45418155 0.82309273
vn -2.5212141e-17 0.45418155 0.89090915
vn -0.34093617 0.45418155 0.82309273
vn -0.62996790 0.45418155 0.62996790
vn -0.82309273 0.45418155 0.34093617
vn -0.89090915 0.45418155 1.5127284e-16
vn -0.82309273 0.45418155 -0.34093617
vn -0.62996790 0.45418155 -0.62996790
vn -0.34093617 0.45418155 -0.82309273
vn -3.4036390e-16 0.45418155 -0.89090915
vn 0.34093617 0.45418155 -0.82309273
vn 0.62996790 0.45418155 -0.62996790
vn 0.82309273 0.45418155 -0.34093617
vn 0.89090915 -0.45418155 -2.5212141e-17
vn 0.82309273 -0.45418155 0.34093617
vn 0.62996790 -0.45418155 0.62996790
vn 0.34093617 -0.45418155 0.82309273
vn -2.5212141e-17 -0.45418155 0.89090915
vn -0.34093617 -0.45418155 0.82309273
vn -0.62996790 -0.45418155 0.62996790
vn -0.82309273 -0.45418155 0.34093617
vn -0.89090915 -0.45418155 1.2606070e-16
vn -0.82309273 -0.45418155 -0.34093617
vn -0.62996790 -0.45418155 -0.62996790
vn -0.34093617 -0.45418155 -0.82309273
vn -3.4036390e-16 -0.45418155 -0.89090915
vn 0.34093617 -0.45418155 -0.82309273
vn 0.62996790 -0.45418155 -0.62996790
vn 0.82309273 -0.45418155 -0.34093617
vn 0.89090915 6.3030352e-17 0.45418155
vn 0.82309273 -0.34093617 0.45418155
vn 0.62996790 -0.62996790 0.45418155
vn 0.34093617 -0.82309273 0.45418155
vn 3.7818211e-17 -0.89090915 0.45418155
vn -0.34093617 -0.82309273 0.45418155
vn -0.62996790 -0.62996790 0.45418155
vn -0.82309273 -0.34093617 0.45418155
vn -0.89090915 -1.2606070e-16 0.45418155
vn -0.82309273 0.34093617 0.45418155
vn -0.62996790 0.62996790 0.45418155
vn -0.34093617 0.82309273 0.45418155
vn 0.0000000e+0 0.89090915 0.45418155
vn 0.34093617 0.82309273 0.45418155
vn 0.62996790 0.62996790 0.45418155
vn 0.82309273 0.34093617 0.45418155
vn 0.89090915 1.2606070e-17 -0.45418155
vn 0.82309273 -0.34093617 -0.45418155
vn 0.62996790 -0.62996790 -0.45418155
vn 0.34093617 -0.82309273 -0.45418155
vn 3.7818211e-17 -0.89090915 -0.45418155
vn -0.34093617 -0.82309273 -0.45418155
vn -0.62996790 -0.62996790 -0.45418155
vn -0.82309273 -0.34093617 -0.45418155
vn -0.89090915 -1.7648498e-16 -0.45418155
vn -0.82309273 0.34093617 -0.45418155
vn -0.62996790 0.62996790 -0.45418155
vn -0.34093617 0.82309273 -0.45418155
vn 0.0000000e+0 0.89090915 -0.45418155
vn 0.34093617 0.82309273 -0.45418155
vn 0.62996790 0.62996790 -0.45418155
vn 0.82309273 0.34093617 -0.45418155
g Cylinder1_Cylinder1_auv
usemtl Cylinder1_auv
s 1
f 1/116/1 16/115/16 15/113/15 14/111/14 13/99/13 12/97/12 11/95/11 10/93/10 9/89/9 8/92/8 7/94/7 6/96/6 5/98/5 4/110/4 3/112/3 2/114/2
f 1/26/1 17/25/17 32/27/32 16/28/16
f 2/24/2 18/23/18 17/25/17 1/26/1
f 3/21/3 19/20/19 18/23/18 2/24/2
f 4/18/4 20/17/20 19/19/19 3/22/3
f 5/16/5 21/15/21 20/17/20 4/18/4
f 6/14/6 22/13/22 21/15/21 5/16/5
f 7/12/7 23/11/23 22/13/22 6/14/6
f 8/36/8 24/35/24 23/38/23 7/39/7
f 9/34/9 25/33/25 24/35/24 8/36/8
f 10/32/10 26/31/26 25/33/25 9/34/9
f 11/30/11 27/29/27 26/31/26 10/32/10
f 12/8/12 28/7/28 27/9/27 11/10/11
f 13/6/13 29/5/29 28/7/28 12/8/12
f 14/4/14 30/3/30 29/5/29 13/6/13
f 15/2/15 31/1/31 30/3/30 14/4/14
f 16/28/16 32/27/32 31/29/31 15/30/15
f 18/118/18 19/120/19 20/122/20 21/124/21 22/130/22 23/132/23 24/134/24 25/136/25 26/135/26 27/133/27 28/131/28 29/125/29 30/123/30 31/121/31 32/119/32 17/117/17
f 33/141/33 48/138/48 47/126/47 46/75/46 45/66/45 44/57/44 43/50/43 42/46/42 41/40/41 40/45/40 39/51/39 38/59/38 37/67/37 36/74/36 35/128/35 34/137/34
f 33/87/33 49/107/49 64/108/64 48/88/48
f 34/86/34 50/106/50 49/107/49 33/87/33
f 35/84/35 51/101/51 50/106/50 34/86/34
f 36/55/36 52/56/52 51/42/51 35/37/35
f 37/61/37 53/62/53 52/56/52 36/55/36
f 38/69/38 54/70/54 53/62/53 37/61/37
f 39/77/39 55/78/55 54/70/54 38/69/38
f 40/104/40 56/81/56 55/90/55 39/103/39
f 41/105/41 57/82/57 56/81/56 40/104/40
f 42/100/42 58/83/58 57/82/57 41/105/41
f 43/102/43 59/85/59 58/83/58 42/100/42
f 44/53/44 60/54/60 59/44/59 43/43/43
f 45/63/45 61/64/61 60/54/60 44/53/44
f 46/71/46 62/72/62 61/64/61 45/63/45
f 47/79/47 63/80/63 62/72/62 46/71/46
f 48/88/48 64/108/64 63/109/63 47/91/47
f 50/47/50 51/49/51 52/58/52 53/65/53 54/73/54 55/127/55 56/139/56 57/142/57 58/140/58 59/129/59 60/76/60 61/68/61 62/60/62 63/52/63 64/48/64 49/41/49
